<?xml version="1.0" encoding="utf-8"?>
<!-- Generator: Adobe Illustrator 17.0.0, SVG Export Plug-In . SVG Version: 6.00 Build 0)  -->
<!DOCTYPE svg PUBLIC "-//W3C//DTD SVG 1.1//EN" "http://www.w3.org/Graphics/SVG/1.1/DTD/svg11.dtd">
<svg version="1.1" id="Layer_1" xmlns="http://www.w3.org/2000/svg" xmlns:xlink="http://www.w3.org/1999/xlink" x="0px" y="0px"
	 width="40px" height="22px" viewBox="-481.5 278.5 40 22" enable-background="new -481.5 278.5 40 22" xml:space="preserve">
<g>
	<path d="M-443.5,294.5c0,2.2-1.803,4-4.007,4h-9.986c-2.204,0-4.007-1.8-4.007-4v-10c0-2.2,1.803-4,4.007-4h9.986
		c2.204,0,4.007,1.8,4.007,4V294.5z"/>
</g>
<g>
	<path fill="#FFFFFF" stroke="#FFFFFF" stroke-width="0.5" stroke-miterlimit="10" d="M-446.417,292.315h-12.167
		c0.001,0.88,0.672,1.289,1.212,1.291h9.743C-446.984,293.604-446.42,293.099-446.417,292.315L-446.417,292.315z"/>
	<path fill="#FFFFFF" stroke="#FFFFFF" stroke-width="0.5" stroke-miterlimit="10" d="M-449.324,285.393h-7.259v4.763
		c0.001,0.647,0.558,1.158,1.16,1.16h4.71c0.679-0.001,1.142-0.572,1.14-1.16v-0.395c1.344-0.001,2.319-1.01,2.319-2.187
		C-447.255,286.377-448.211,285.393-449.324,285.393z M-449.574,288.852v-2.563h0.25c0.921-0.001,1.216,0.869,1.212,1.291
		C-448.111,288.263-448.616,288.916-449.574,288.852z"/>
</g>
<rect x="-481.5" y="278.5" fill="none" width="40" height="22"/>
</svg>
