<?xml version="1.0" encoding="utf-8"?>
<!-- Generator: Adobe Illustrator 17.0.0, SVG Export Plug-In . SVG Version: 6.00 Build 0)  -->
<!DOCTYPE svg PUBLIC "-//W3C//DTD SVG 1.1//EN" "http://www.w3.org/Graphics/SVG/1.1/DTD/svg11.dtd">
<svg version="1.1" id="Layer_1" xmlns="http://www.w3.org/2000/svg" xmlns:xlink="http://www.w3.org/1999/xlink" x="0px" y="0px"
	 width="36px" height="18px" viewBox="-305.5 396.5 36 18" enable-background="new -305.5 396.5 36 18" xml:space="preserve">
<g>
	<path d="M-269.5,410.5c0,2.2-1.803,4-4.007,4h-9.986c-2.204,0-4.007-1.8-4.007-4v-10c0-2.2,1.803-4,4.007-4h9.986
		c2.204,0,4.007,1.8,4.007,4V410.5z"/>
</g>
<g>
	<path fill="#FFFFFF" stroke="#FFFFFF" stroke-width="0.5" stroke-miterlimit="10" d="M-272.386,408.815h-12.167
		c0.001,0.88,0.672,1.289,1.212,1.291h9.743C-272.953,410.104-272.389,409.598-272.386,408.815L-272.386,408.815z"/>
	<path fill="#FFFFFF" stroke="#FFFFFF" stroke-width="0.5" stroke-miterlimit="10" d="M-275.293,401.893h-7.259v4.763
		c0.001,0.647,0.558,1.158,1.16,1.16h4.71c0.679-0.001,1.142-0.572,1.14-1.16v-0.395c1.344-0.001,2.319-1.01,2.319-2.187
		C-273.224,402.876-274.18,401.893-275.293,401.893z M-275.543,405.352v-2.563h0.25c0.921-0.001,1.216,0.869,1.212,1.291
		C-274.08,404.762-274.585,405.415-275.543,405.352z"/>
</g>
<line fill="none" x1="-309.5" y1="394.5" x2="-309.5" y2="412.5"/>
</svg>
