<?xml version="1.0" encoding="utf-8"?>
<!-- Generator: Adobe Illustrator 17.0.0, SVG Export Plug-In . SVG Version: 6.00 Build 0)  -->
<!DOCTYPE svg PUBLIC "-//W3C//DTD SVG 1.1//EN" "http://www.w3.org/Graphics/SVG/1.1/DTD/svg11.dtd">
<svg version="1.1" id="Layer_1" xmlns="http://www.w3.org/2000/svg" xmlns:xlink="http://www.w3.org/1999/xlink" x="0px" y="0px"
	 width="20px" height="20px" viewBox="-307.5 394.5 20 20" enable-background="new -307.5 394.5 20 20" xml:space="preserve">
<g>
	<path fill="#231F20" d="M-289.499,408.945c0,1.956-1.603,3.556-3.562,3.556h-8.877c-1.959,0-3.562-1.6-3.562-3.556v-8.889
		c0-1.956,1.603-3.556,3.562-3.556h8.877c1.959,0,3.562,1.6,3.562,3.556V408.945z"/>
</g>
<g>
	<path fill="#FFFFFF" stroke="#FFFFFF" stroke-width="0.5" stroke-miterlimit="10" d="M-292.094,407.502h-10.809
		c0.001,0.782,0.597,1.145,1.077,1.147h8.656C-292.598,408.646-292.097,408.198-292.094,407.502L-292.094,407.502z"/>
	<path fill="#FFFFFF" stroke="#FFFFFF" stroke-width="0.5" stroke-miterlimit="10" d="M-294.677,401.352h-6.449v4.231
		c0.001,0.575,0.496,1.029,1.031,1.031h4.184c0.603-0.001,1.015-0.508,1.013-1.031v-0.351c1.194-0.001,2.06-0.897,2.06-1.943
		C-292.839,402.226-293.688,401.352-294.677,401.352z M-294.899,404.425v-2.277h0.222c0.818-0.001,1.08,0.772,1.077,1.147
		C-293.599,403.901-294.048,404.482-294.899,404.425z"/>
</g>
<rect x="-307.5" y="394.5" fill="none" width="20" height="20"/>
</svg>
