<?xml version="1.0" encoding="utf-8"?>
<!-- Generator: Adobe Illustrator 17.0.0, SVG Export Plug-In . SVG Version: 6.00 Build 0)  -->
<!DOCTYPE svg PUBLIC "-//W3C//DTD SVG 1.1//EN" "http://www.w3.org/Graphics/SVG/1.1/DTD/svg11.dtd">
<svg version="1.1" id="Layer_1" xmlns="http://www.w3.org/2000/svg" xmlns:xlink="http://www.w3.org/1999/xlink" x="0px" y="0px"
	 width="40px" height="22px" viewBox="0 0 40 22" enable-background="new 0 0 40 22" xml:space="preserve">
<line fill="none" x1="2" y1="2" x2="2" y2="20"/>
<rect fill="none" width="40" height="22"/>
<g>
	<path d="M26.314,13.166c0.515,0.893,0.208,2.037-0.685,2.553c-0.893,0.516-2.037,0.208-2.552-0.684
		c-0.517-0.895-0.209-2.038,0.683-2.553C24.654,11.966,25.798,12.272,26.314,13.166z"/>
	<g>
		<polygon points="27.089,12.066 27.655,13.045 36.217,8.91 34.952,6.718 		"/>
	</g>
	<g>
		<polygon points="24.134,11.009 25.263,11.011 25.968,4.494 23.439,4.493 		"/>
	</g>
	<g>
		<polygon points="25.756,11.142 26.733,11.709 31.189,5.378 28.996,4.112 		"/>
	</g>
	<g>
		<polygon points="27.092,16.132 27.655,15.153 33.651,17.801 32.388,19.993 		"/>
	</g>
	<g>
		<polygon points="27.788,14.661 27.786,13.532 35.496,12.839 35.496,15.37 		"/>
	</g>
</g>
</svg>
