<?xml version="1.0" encoding="utf-8"?>
<!-- Generator: Adobe Illustrator 17.0.0, SVG Export Plug-In . SVG Version: 6.00 Build 0)  -->
<!DOCTYPE svg PUBLIC "-//W3C//DTD SVG 1.1//EN" "http://www.w3.org/Graphics/SVG/1.1/DTD/svg11.dtd">
<svg version="1.1" id="Layer_1" xmlns="http://www.w3.org/2000/svg" xmlns:xlink="http://www.w3.org/1999/xlink" x="0px" y="0px"
	 width="40px" height="22px" viewBox="0 0 40 22" enable-background="new 0 0 40 22" xml:space="preserve">
<line fill="none" x1="2" y1="2" x2="2" y2="20"/>
<rect fill="none" width="40" height="22"/>
<g>
	<path d="M32.116,8.946c-0.729-0.729-0.728-1.913,0.001-2.643c0.729-0.729,1.913-0.728,2.642,0c0.73,0.73,0.729,1.914,0.001,2.642
		C34.03,9.675,32.846,9.676,32.116,8.946z"/>
	<g>
		<polygon points="31.652,10.209 30.853,9.409 23.652,15.62 25.442,17.409 		"/>
	</g>
	<g>
		<polygon points="34.781,10.465 33.689,10.756 34.695,17.233 37.138,16.579 		"/>
	</g>
	<g>
		<polygon points="33.18,10.756 32.089,10.461 29.423,17.73 31.869,18.385 		"/>
	</g>
	<g>
		<polygon points="30.597,6.282 30.307,7.373 23.83,6.367 24.483,3.923 		"/>
	</g>
	<g>
		<polygon points="30.306,7.883 30.6,8.973 23.332,11.638 22.677,9.193 		"/>
	</g>
</g>
</svg>
