<?xml version="1.0" encoding="utf-8"?>
<!-- Generator: Adobe Illustrator 17.0.0, SVG Export Plug-In . SVG Version: 6.00 Build 0)  -->
<!DOCTYPE svg PUBLIC "-//W3C//DTD SVG 1.1//EN" "http://www.w3.org/Graphics/SVG/1.1/DTD/svg11.dtd">
<svg version="1.1" id="Layer_1" xmlns="http://www.w3.org/2000/svg" xmlns:xlink="http://www.w3.org/1999/xlink" x="0px" y="0px"
	 width="40px" height="22px" viewBox="0 0 40 22" enable-background="new 0 0 40 22" xml:space="preserve">
<line fill="none" x1="2" y1="2" x2="2" y2="20"/>
<rect fill="none" width="40" height="22"/>
<g>
	<path d="M26.25,10.475c-0.267,0.996-1.293,1.587-2.29,1.32c-0.996-0.267-1.587-1.293-1.321-2.288
		c0.267-0.998,1.293-1.588,2.288-1.322C25.924,8.453,26.517,9.478,26.25,10.475z"/>
	<g>
		<polygon points="27.576,10.245 27.283,11.338 36.262,14.468 36.917,12.024 		"/>
	</g>
	<g>
		<polygon points="26.233,7.408 27.03,8.208 32.137,4.098 30.349,2.31 		"/>
	</g>
	<g>
		<polygon points="27.286,8.649 27.576,9.741 35.203,8.415 34.548,5.969 		"/>
	</g>
	<g>
		<polygon points="24.702,13.123 25.792,12.828 28.16,18.941 25.717,19.597 		"/>
	</g>
	<g>
		<polygon points="26.234,12.574 27.031,11.775 32.973,16.737 31.183,18.526 		"/>
	</g>
</g>
</svg>
