<?xml version="1.0" encoding="utf-8"?>
<!-- Generator: Adobe Illustrator 17.0.0, SVG Export Plug-In . SVG Version: 6.00 Build 0)  -->
<!DOCTYPE svg PUBLIC "-//W3C//DTD SVG 1.1//EN" "http://www.w3.org/Graphics/SVG/1.1/DTD/svg11.dtd">
<svg version="1.1" id="Layer_1" xmlns="http://www.w3.org/2000/svg" xmlns:xlink="http://www.w3.org/1999/xlink" x="0px" y="0px"
	 width="40px" height="22px" viewBox="0 0 40 22" enable-background="new 0 0 40 22" xml:space="preserve">
<line fill="none" x1="2" y1="2" x2="2" y2="20"/>
<rect fill="none" width="40" height="22"/>
<g>
	<path d="M27.769,14.152c0.893,0.516,1.199,1.66,0.683,2.553c-0.515,0.893-1.66,1.199-2.552,0.684
		c-0.895-0.516-1.2-1.66-0.685-2.552C25.731,13.944,26.875,13.636,27.769,14.152z"/>
	<g>
		<polygon points="27.89,12.812 28.87,13.378 34.217,5.515 32.025,4.25 		"/>
	</g>
	<g>
		<polygon points="24.802,13.375 25.781,12.812 23.133,6.816 20.943,8.08 		"/>
	</g>
	<g>
		<polygon points="26.273,12.679 27.403,12.681 28.097,4.971 25.564,4.971 		"/>
	</g>
	<g>
		<polygon points="29.926,16.333 29.923,15.203 36.441,14.499 36.442,17.028 		"/>
	</g>
	<g>
		<polygon points="29.793,14.711 29.226,13.734 35.557,9.278 36.823,11.471 		"/>
	</g>
</g>
</svg>
