<?xml version="1.0" encoding="utf-8"?>
<!-- Generator: Adobe Illustrator 17.0.0, SVG Export Plug-In . SVG Version: 6.00 Build 0)  -->
<!DOCTYPE svg PUBLIC "-//W3C//DTD SVG 1.1//EN" "http://www.w3.org/Graphics/SVG/1.1/DTD/svg11.dtd">
<svg version="1.1" id="Layer_1" xmlns="http://www.w3.org/2000/svg" xmlns:xlink="http://www.w3.org/1999/xlink" x="0px" y="0px"
	 width="40px" height="22px" viewBox="0 0 40 22" enable-background="new 0 0 40 22" xml:space="preserve">
<line fill="none" x1="2" y1="2" x2="2" y2="20"/>
<rect fill="none" width="40" height="22"/>
<g>
	<path d="M26.136,12.298c0.267,0.996-0.326,2.021-1.323,2.288c-0.996,0.267-2.021-0.326-2.288-1.321
		c-0.267-0.998,0.326-2.022,1.321-2.289C24.842,10.709,25.868,11.301,26.136,12.298z"/>
	<g>
		<polygon points="27.169,11.436 27.461,12.528 36.803,10.75 36.147,8.305 		"/>
	</g>
	<g>
		<polygon points="24.588,9.65 25.678,9.944 28.046,3.832 25.603,3.177 		"/>
	</g>
	<g>
		<polygon points="26.12,10.198 26.917,10.999 32.859,6.037 31.069,4.246 		"/>
	</g>
	<g>
		<polygon points="26.119,15.364 26.916,14.564 32.023,18.674 30.235,20.464 		"/>
	</g>
	<g>
		<polygon points="27.172,14.124 27.462,13.032 35.089,14.358 34.434,16.803 		"/>
	</g>
</g>
</svg>
