<?xml version="1.0" encoding="utf-8"?>
<!-- Generator: Adobe Illustrator 17.0.0, SVG Export Plug-In . SVG Version: 6.00 Build 0)  -->
<!DOCTYPE svg PUBLIC "-//W3C//DTD SVG 1.1//EN" "http://www.w3.org/Graphics/SVG/1.1/DTD/svg11.dtd">
<svg version="1.1" id="Layer_1" xmlns="http://www.w3.org/2000/svg" xmlns:xlink="http://www.w3.org/1999/xlink" x="0px" y="0px"
	 width="18px" height="18px" viewBox="-305.5 396.5 18 18" enable-background="new -305.5 396.5 18 18" xml:space="preserve">
<g>
	<path d="M-287.5,410.5c0,2.2-1.803,4-4.007,4h-9.986c-2.204,0-4.007-1.8-4.007-4v-10c0-2.2,1.803-4,4.007-4h9.986
		c2.204,0,4.007,1.8,4.007,4V410.5z"/>
</g>
<g>
	<path id="path4870" fill="#FFFFFF" stroke="#FFFFFF" stroke-width="0.5" stroke-miterlimit="10" d="M-301.72,400.269h4.296v0.417
		h-0.417v0.459l-3.88,0.337v-1.213H-301.72z"/>
	<path id="path4872" fill="#FFFFFF" stroke="#FFFFFF" stroke-width="0.5" stroke-miterlimit="10" d="M-295.621,401.511
		c0.547,0,0.989-0.441,0.989-0.99c0-0.547-0.442-0.992-0.989-0.992c-0.549,0-0.992,0.445-0.992,0.992
		C-296.613,401.07-296.169,401.511-295.621,401.511"/>
	<path id="path4874" fill="#FFFFFF" stroke="#FFFFFF" stroke-width="0.5" stroke-miterlimit="10" d="M-294.871,401.455
		c0.283-0.28,0.741-0.28,1.024,0l2.144,2.141c0.083,0.082,0.132,0.196,0.132,0.319v6.423c0,0.443-0.357,0.799-0.799,0.799
		c-0.442,0-0.805-0.357-0.805-0.799v-5.299l-1.998-2l-0.799,0.799c-0.09,0.108-0.225,0.179-0.381,0.179
		c-0.143,0-0.271-0.061-0.363-0.161l-1.376-1.379c-0.175-0.208-0.16-0.525,0.047-0.7c0.208-0.175,0.518-0.145,0.694,0.062
		l1.046,1.051L-294.871,401.455z"/>
	<path id="path4876" fill="#FFFFFF" stroke="#FFFFFF" stroke-width="0.5" stroke-miterlimit="10" d="M-299.038,401.759
		c-0.02-0.096-0.105-0.166-0.204-0.166c-0.103,0-0.187,0.073-0.205,0.172l-0.334,1.913v7.41h2.829v-1.051h-1.736l-0.012-6.359
		L-299.038,401.759z"/>
</g>
</svg>
