<?xml version="1.0" encoding="utf-8"?>
<!-- Generator: Adobe Illustrator 17.0.0, SVG Export Plug-In . SVG Version: 6.00 Build 0)  -->
<!DOCTYPE svg PUBLIC "-//W3C//DTD SVG 1.1//EN" "http://www.w3.org/Graphics/SVG/1.1/DTD/svg11.dtd">
<svg version="1.1" id="Layer_1" xmlns="http://www.w3.org/2000/svg" xmlns:xlink="http://www.w3.org/1999/xlink" x="0px" y="0px"
	 width="18px" height="18px" viewBox="-480.5 279.5 18 18" enable-background="new -480.5 279.5 18 18" xml:space="preserve">
<rect x="-480.5" y="279.5" fill="none" width="18" height="18"/>
<g>
	<path d="M-471.5,291.536c0.899,0,1.629,0.73,1.629,1.631c0,0.899-0.73,1.629-1.629,1.629c-0.9,0-1.63-0.73-1.63-1.629
		C-473.13,292.267-472.4,291.536-471.5,291.536z"/>
	<g>
		<polygon points="-471.993,290.471 -471.007,290.471 -470.397,282.204 -472.603,282.204 		"/>
	</g>
	<g>
		<polygon points="-474.079,292.242 -473.585,291.391 -478.198,288.017 -479.302,289.927 		"/>
	</g>
	<g>
		<polygon points="-473.272,291.076 -472.418,290.585 -475.255,284.462 -477.167,285.565 		"/>
	</g>
	<g>
		<polygon points="-468.922,292.242 -469.416,291.391 -464.802,288.017 -463.698,289.927 		"/>
	</g>
	<g>
		<polygon points="-469.729,291.076 -470.582,290.585 -467.745,284.462 -465.834,285.565 		"/>
	</g>
</g>
</svg>
