<?xml version="1.0" encoding="utf-8"?>
<!-- Generator: Adobe Illustrator 17.0.0, SVG Export Plug-In . SVG Version: 6.00 Build 0)  -->
<!DOCTYPE svg PUBLIC "-//W3C//DTD SVG 1.1//EN" "http://www.w3.org/Graphics/SVG/1.1/DTD/svg11.dtd">
<svg version="1.1" id="Layer_1" xmlns="http://www.w3.org/2000/svg" xmlns:xlink="http://www.w3.org/1999/xlink" x="0px" y="0px"
	 width="40px" height="22px" viewBox="0 0 40 22" enable-background="new 0 0 40 22" xml:space="preserve">
<line fill="none" x1="2" y1="2" x2="2" y2="20"/>
<rect fill="none" width="40" height="22"/>
<g>
	<path d="M32.145,13.688c0.729-0.729,1.913-0.728,2.643,0.001c0.729,0.729,0.728,1.913,0,2.642c-0.73,0.73-1.914,0.729-2.642,0.001
		C31.416,15.603,31.415,14.418,32.145,13.688z"/>
	<g>
		<polygon points="30.882,13.225 31.681,12.425 25.471,5.224 23.681,7.014 		"/>
	</g>
	<g>
		<polygon points="30.626,16.353 30.335,15.262 23.858,16.267 24.512,18.71 		"/>
	</g>
	<g>
		<polygon points="30.334,14.752 30.629,13.661 23.361,10.996 22.705,13.442 		"/>
	</g>
	<g>
		<polygon points="34.809,12.17 33.717,11.88 34.723,5.402 37.167,6.055 		"/>
	</g>
	<g>
		<polygon points="33.208,11.878 32.118,12.172 29.453,4.904 31.898,4.249 		"/>
	</g>
</g>
</svg>
