<?xml version="1.0" encoding="utf-8"?>
<!-- Generator: Adobe Illustrator 17.0.0, SVG Export Plug-In . SVG Version: 6.00 Build 0)  -->
<!DOCTYPE svg PUBLIC "-//W3C//DTD SVG 1.1//EN" "http://www.w3.org/Graphics/SVG/1.1/DTD/svg11.dtd">
<svg version="1.1" id="Layer_1" xmlns="http://www.w3.org/2000/svg" xmlns:xlink="http://www.w3.org/1999/xlink" x="0px" y="0px"
	 width="40px" height="22px" viewBox="0 0 40 22" enable-background="new 0 0 40 22" xml:space="preserve">
<line fill="none" x1="2" y1="2" x2="2" y2="20"/>
<rect fill="none" width="40" height="22"/>
<g>
	<path d="M29.94,7.317c-0.996-0.267-1.587-1.293-1.32-2.29c0.267-0.996,1.293-1.587,2.288-1.321C31.906,3.974,32.496,5,32.23,5.995
		C31.962,6.992,30.937,7.585,29.94,7.317z"/>
	<g>
		<polygon points="30.17,8.643 29.078,8.35 25.947,17.329 28.392,17.984 		"/>
	</g>
	<g>
		<polygon points="33.007,7.301 32.208,8.098 36.317,13.204 38.106,11.416 		"/>
	</g>
	<g>
		<polygon points="31.766,8.353 30.674,8.644 32,16.271 34.446,15.615 		"/>
	</g>
	<g>
		<polygon points="27.293,5.769 27.587,6.86 21.474,9.227 20.818,6.784 		"/>
	</g>
	<g>
		<polygon points="27.841,7.302 28.641,8.099 23.679,14.041 21.889,12.251 		"/>
	</g>
</g>
</svg>
