<?xml version="1.0" encoding="utf-8"?>
<!-- Generator: Adobe Illustrator 17.0.0, SVG Export Plug-In . SVG Version: 6.00 Build 0)  -->
<!DOCTYPE svg PUBLIC "-//W3C//DTD SVG 1.1//EN" "http://www.w3.org/Graphics/SVG/1.1/DTD/svg11.dtd">
<svg version="1.1" id="Layer_1" xmlns="http://www.w3.org/2000/svg" xmlns:xlink="http://www.w3.org/1999/xlink" x="0px" y="0px"
	 width="40px" height="22px" viewBox="0 0 40 22" enable-background="new 0 0 40 22" xml:space="preserve">
<line fill="none" x1="2" y1="2" x2="2" y2="20"/>
<rect fill="none" width="40" height="22"/>
<g>
	<path d="M26.131,11.376c0,1.031-0.838,1.868-1.87,1.868c-1.031,0-1.868-0.838-1.868-1.868c0-1.033,0.838-1.869,1.868-1.869
		C25.293,9.507,26.131,10.344,26.131,11.376z"/>
	<g>
		<polygon points="27.352,10.811 27.352,11.942 36.835,12.642 36.835,10.111 		"/>
	</g>
	<g>
		<polygon points="25.321,8.418 26.298,8.984 30.167,3.693 27.977,2.428 		"/>
	</g>
	<g>
		<polygon points="26.659,9.344 27.222,10.324 34.246,7.069 32.98,4.876 		"/>
	</g>
	<g>
		<polygon points="25.321,14.334 26.298,13.767 30.167,19.059 27.977,20.325 		"/>
	</g>
	<g>
		<polygon points="26.659,13.408 27.222,12.429 34.246,15.684 32.98,17.876 		"/>
	</g>
</g>
</svg>
