<?xml version="1.0" encoding="utf-8"?>
<!-- Generator: Adobe Illustrator 17.0.0, SVG Export Plug-In . SVG Version: 6.00 Build 0)  -->
<!DOCTYPE svg PUBLIC "-//W3C//DTD SVG 1.1//EN" "http://www.w3.org/Graphics/SVG/1.1/DTD/svg11.dtd">
<svg version="1.1" id="Layer_1" xmlns="http://www.w3.org/2000/svg" xmlns:xlink="http://www.w3.org/1999/xlink" x="0px" y="0px"
	 width="40px" height="22px" viewBox="0 0 40 22" enable-background="new 0 0 40 22" xml:space="preserve">
<g>
	<path d="M38,16c0,2.2-1.803,4-4.007,4h-9.986C21.803,20,20,18.2,20,16V6c0-2.2,1.803-4,4.007-4h9.986C36.197,2,38,3.8,38,6V16z"/>
</g>
<line fill="none" x1="2" y1="2" x2="2" y2="20"/>
<rect fill="none" width="40" height="22"/>
<g>
	<path fill="#FFFFFF" d="M26.892,11c0,0.797-0.648,1.444-1.446,1.444c-0.797,0-1.444-0.648-1.444-1.444
		c0-0.798,0.648-1.445,1.444-1.445C26.245,9.555,26.892,10.202,26.892,11z"/>
	<g>
		<polygon fill="#FFFFFF" points="27.836,10.563 27.836,11.437 35.167,11.978 35.167,10.022 		"/>
	</g>
	<g>
		<polygon fill="#FFFFFF" points="26.266,8.713 27.021,9.151 30.012,5.061 28.32,4.083 		"/>
	</g>
	<g>
		<polygon fill="#FFFFFF" points="27.301,9.429 27.736,10.186 33.165,7.67 32.187,5.975 		"/>
	</g>
	<g>
		<polygon fill="#FFFFFF" points="26.266,13.286 27.021,12.848 30.012,16.939 28.32,17.917 		"/>
	</g>
	<g>
		<polygon fill="#FFFFFF" points="27.301,12.57 27.736,11.814 33.165,14.33 32.187,16.024 		"/>
	</g>
</g>
</svg>
