<?xml version="1.0" encoding="utf-8"?>
<!-- Generator: Adobe Illustrator 17.0.0, SVG Export Plug-In . SVG Version: 6.00 Build 0)  -->
<!DOCTYPE svg PUBLIC "-//W3C//DTD SVG 1.1//EN" "http://www.w3.org/Graphics/SVG/1.1/DTD/svg11.dtd">
<svg version="1.1" id="Layer_1" xmlns="http://www.w3.org/2000/svg" xmlns:xlink="http://www.w3.org/1999/xlink" x="0px" y="0px"
	 width="16px" height="16px" viewBox="-306.5 395.5 16 16" enable-background="new -306.5 395.5 16 16" xml:space="preserve">
<g>
	<path d="M-291.5,407.39c0,1.711-1.403,3.111-3.116,3.111h-7.768c-1.715,0-3.116-1.4-3.116-3.111v-7.778
		c0-1.711,1.403-3.111,3.116-3.111h7.768c1.715,0,3.116,1.4,3.116,3.111V407.39z"/>
</g>
<g>
	<path id="path4870" fill="#FFFFFF" stroke="#FFFFFF" stroke-width="0.5" stroke-miterlimit="10" d="M-302.613,399.07h3.445v0.334
		h-0.334v0.368l-3.111,0.27V399.07z"/>
	<path id="path4872" fill="#FFFFFF" stroke="#FFFFFF" stroke-width="0.5" stroke-miterlimit="10" d="M-297.723,400.065
		c0.439,0,0.793-0.354,0.793-0.793c0-0.438-0.355-0.796-0.793-0.796c-0.44,0-0.796,0.357-0.796,0.796
		C-298.518,399.711-298.163,400.065-297.723,400.065"/>
	<path id="path4874" fill="#FFFFFF" stroke="#FFFFFF" stroke-width="0.5" stroke-miterlimit="10" d="M-297.121,400.019
		c0.227-0.225,0.594-0.225,0.821,0l1.719,1.716c0.066,0.066,0.106,0.157,0.106,0.256v5.15c0,0.355-0.286,0.641-0.641,0.641
		c-0.355,0-0.646-0.286-0.646-0.641v-4.249l-1.602-1.603l-0.641,0.641c-0.072,0.087-0.18,0.143-0.305,0.143
		c-0.114,0-0.217-0.049-0.291-0.129l-1.103-1.106c-0.141-0.167-0.129-0.421,0.037-0.561c0.167-0.141,0.416-0.117,0.556,0.049
		l0.839,0.842L-297.121,400.019z"/>
	<path id="path4876" fill="#FFFFFF" stroke="#FFFFFF" stroke-width="0.5" stroke-miterlimit="10" d="M-300.464,400.263
		c-0.016-0.077-0.084-0.133-0.164-0.133c-0.083,0-0.15,0.059-0.165,0.138l-0.268,1.534v5.941h2.268v-0.842h-1.392l-0.01-5.099
		L-300.464,400.263z"/>
</g>
<rect x="-306.5" y="395.5" fill="none" width="16" height="16"/>
</svg>
