<?xml version="1.0" encoding="utf-8"?>
<!-- Generator: Adobe Illustrator 17.0.0, SVG Export Plug-In . SVG Version: 6.00 Build 0)  -->
<!DOCTYPE svg PUBLIC "-//W3C//DTD SVG 1.1//EN" "http://www.w3.org/Graphics/SVG/1.1/DTD/svg11.dtd">
<svg version="1.1" id="Layer_1" xmlns="http://www.w3.org/2000/svg" xmlns:xlink="http://www.w3.org/1999/xlink" x="0px" y="0px"
	 width="40px" height="22px" viewBox="0 0 40 22" enable-background="new 0 0 40 22" xml:space="preserve">
<line fill="none" x1="2" y1="2" x2="2" y2="20"/>
<rect fill="none" width="40" height="22"/>
<g>
	<path d="M32.037,9.84c-0.267-0.996,0.326-2.021,1.323-2.288c0.996-0.267,2.021,0.326,2.288,1.321
		c0.267,0.998-0.326,2.022-1.321,2.289C33.331,11.428,32.305,10.836,32.037,9.84z"/>
	<g>
		<polygon points="31.004,10.701 30.712,9.609 21.37,11.387 22.026,13.832 		"/>
	</g>
	<g>
		<polygon points="33.585,12.487 32.495,12.193 30.127,18.305 32.57,18.96 		"/>
	</g>
	<g>
		<polygon points="32.053,11.939 31.256,11.138 25.314,16.1 27.104,17.891 		"/>
	</g>
	<g>
		<polygon points="32.054,6.773 31.257,7.573 26.15,3.463 27.938,1.673 		"/>
	</g>
	<g>
		<polygon points="31.001,8.014 30.711,9.105 23.084,7.779 23.739,5.334 		"/>
	</g>
</g>
</svg>
