<?xml version="1.0" encoding="utf-8"?>
<!-- Generator: Adobe Illustrator 17.0.0, SVG Export Plug-In . SVG Version: 6.00 Build 0)  -->
<!DOCTYPE svg PUBLIC "-//W3C//DTD SVG 1.1//EN" "http://www.w3.org/Graphics/SVG/1.1/DTD/svg11.dtd">
<svg version="1.1" id="Layer_1" xmlns="http://www.w3.org/2000/svg" xmlns:xlink="http://www.w3.org/1999/xlink" x="0px" y="0px"
	 width="40px" height="22px" viewBox="0 0 40 22" enable-background="new 0 0 40 22" xml:space="preserve">
<line fill="none" x1="2" y1="2" x2="2" y2="20"/>
<rect fill="none" width="40" height="22"/>
<g>
	<path d="M26.437,8.071C25.708,8.8,24.523,8.8,23.794,8.07c-0.729-0.729-0.728-1.913,0-2.642c0.73-0.73,1.914-0.729,2.642-0.001
		C27.166,6.157,27.167,7.342,26.437,8.071z"/>
	<g>
		<polygon points="27.7,8.535 26.9,9.335 33.11,16.536 34.9,14.746 		"/>
	</g>
	<g>
		<polygon points="27.956,5.407 28.246,6.498 34.723,5.493 34.069,3.05 		"/>
	</g>
	<g>
		<polygon points="28.247,7.008 27.952,8.099 35.22,10.764 35.876,8.318 		"/>
	</g>
	<g>
		<polygon points="23.772,9.59 24.864,9.88 23.858,16.358 21.414,15.705 		"/>
	</g>
	<g>
		<polygon points="25.373,9.882 26.464,9.587 29.129,16.856 26.684,17.511 		"/>
	</g>
</g>
</svg>
