<?xml version="1.0" encoding="utf-8"?>
<!-- Generator: Adobe Illustrator 17.0.0, SVG Export Plug-In . SVG Version: 6.00 Build 0)  -->
<!DOCTYPE svg PUBLIC "-//W3C//DTD SVG 1.1//EN" "http://www.w3.org/Graphics/SVG/1.1/DTD/svg11.dtd">
<svg version="1.1" id="Layer_1" xmlns="http://www.w3.org/2000/svg" xmlns:xlink="http://www.w3.org/1999/xlink" x="0px" y="0px"
	 width="40px" height="22px" viewBox="0 0 40 22" enable-background="new 0 0 40 22" xml:space="preserve">
<line fill="none" x1="2" y1="2" x2="2" y2="20"/>
<rect fill="none" width="40" height="22"/>
<g>
	<path d="M33.131,12.33c0.267-0.996,1.293-1.587,2.29-1.32c0.996,0.267,1.587,1.293,1.321,2.288
		c-0.267,0.998-1.293,1.588-2.288,1.322C33.457,14.352,32.864,13.327,33.131,12.33z"/>
	<g>
		<polygon points="31.806,12.56 32.098,11.467 23.12,8.337 22.465,10.782 		"/>
	</g>
	<g>
		<polygon points="33.148,15.397 32.351,14.597 27.244,18.707 29.032,20.496 		"/>
	</g>
	<g>
		<polygon points="32.095,14.156 31.805,13.064 24.178,14.39 24.833,16.836 		"/>
	</g>
	<g>
		<polygon points="34.679,9.683 33.589,9.977 31.221,3.864 33.664,3.208 		"/>
	</g>
	<g>
		<polygon points="33.147,10.231 32.35,11.031 26.408,6.069 28.198,4.279 		"/>
	</g>
</g>
</svg>
