<?xml version="1.0" encoding="utf-8"?>
<!-- Generator: Adobe Illustrator 17.0.0, SVG Export Plug-In . SVG Version: 6.00 Build 0)  -->
<!DOCTYPE svg PUBLIC "-//W3C//DTD SVG 1.1//EN" "http://www.w3.org/Graphics/SVG/1.1/DTD/svg11.dtd">
<svg version="1.1" id="Layer_1" xmlns="http://www.w3.org/2000/svg" xmlns:xlink="http://www.w3.org/1999/xlink" x="0px" y="0px"
	 width="40px" height="22px" viewBox="0 0 40 22" enable-background="new 0 0 40 22" xml:space="preserve">
<line fill="none" x1="2" y1="2" x2="2" y2="20"/>
<rect fill="none" width="40" height="22"/>
<g>
	<path d="M31.795,8.951c-0.516-0.893-0.208-2.037,0.685-2.553c0.893-0.516,2.037-0.208,2.552,0.684
		c0.516,0.895,0.209,2.038-0.683,2.553C33.455,10.151,32.311,9.845,31.795,8.951z"/>
	<g>
		<polygon points="31.02,10.051 30.454,9.071 21.892,13.207 23.157,15.399 		"/>
	</g>
	<g>
		<polygon points="33.975,11.108 32.846,11.106 32.141,17.623 34.67,17.623 		"/>
	</g>
	<g>
		<polygon points="32.353,10.975 31.376,10.408 26.92,16.738 29.113,18.005 		"/>
	</g>
	<g>
		<polygon points="31.017,5.984 30.455,6.964 24.458,4.315 25.722,2.124 		"/>
	</g>
	<g>
		<polygon points="30.321,7.455 30.323,8.585 22.613,9.278 22.613,6.746 		"/>
	</g>
</g>
</svg>
