<?xml version="1.0" encoding="utf-8"?>
<!-- Generator: Adobe Illustrator 17.0.0, SVG Export Plug-In . SVG Version: 6.00 Build 0)  -->
<!DOCTYPE svg PUBLIC "-//W3C//DTD SVG 1.1//EN" "http://www.w3.org/Graphics/SVG/1.1/DTD/svg11.dtd">
<svg version="1.1" id="Layer_1" xmlns="http://www.w3.org/2000/svg" xmlns:xlink="http://www.w3.org/1999/xlink" x="0px" y="0px"
	 width="22px" height="22px" viewBox="-470.5 280.5 22 22" enable-background="new -470.5 280.5 22 22" xml:space="preserve">
<rect x="-470.5" y="280.5" fill="none" width="22" height="22"/>
<g>
	<path d="M-459.5,294.983c1.031,0,1.868,0.838,1.868,1.87c0,1.031-0.838,1.868-1.868,1.868c-1.033,0-1.869-0.838-1.869-1.868
		C-461.369,295.821-460.533,294.983-459.5,294.983z"/>
	<g>
		<polygon points="-460.066,293.761 -458.934,293.761 -458.234,284.278 -460.766,284.278 		"/>
	</g>
	<g>
		<polygon points="-462.458,295.792 -461.892,294.816 -467.183,290.946 -468.448,293.136 		"/>
	</g>
	<g>
		<polygon points="-461.532,294.454 -460.553,293.892 -463.807,286.868 -466,288.134 		"/>
	</g>
	<g>
		<polygon points="-456.543,295.792 -457.109,294.816 -451.817,290.946 -450.552,293.136 		"/>
	</g>
	<g>
		<polygon points="-457.469,294.454 -458.447,293.892 -455.193,286.868 -453.001,288.134 		"/>
	</g>
</g>
</svg>
