<?xml version="1.0" encoding="utf-8"?>
<!-- Generator: Adobe Illustrator 17.0.0, SVG Export Plug-In . SVG Version: 6.00 Build 0)  -->
<!DOCTYPE svg PUBLIC "-//W3C//DTD SVG 1.1//EN" "http://www.w3.org/Graphics/SVG/1.1/DTD/svg11.dtd">
<svg version="1.1" id="Layer_1" xmlns="http://www.w3.org/2000/svg" xmlns:xlink="http://www.w3.org/1999/xlink" x="0px" y="0px"
	 width="40px" height="22px" viewBox="0 0 40 22" enable-background="new 0 0 40 22" xml:space="preserve">
<line fill="none" x1="2" y1="2" x2="2" y2="20"/>
<rect fill="none" width="40" height="22"/>
<g>
	<path d="M27.552,12.595c0.729,0.729,0.728,1.913-0.001,2.643c-0.729,0.729-1.913,0.728-2.642,0c-0.73-0.73-0.729-1.914-0.001-2.642
		C25.637,11.866,26.822,11.865,27.552,12.595z"/>
	<g>
		<polygon points="28.015,11.332 28.815,12.132 36.016,5.921 34.226,4.131 		"/>
	</g>
	<g>
		<polygon points="24.887,11.076 25.978,10.785 24.973,4.308 22.53,4.962 		"/>
	</g>
	<g>
		<polygon points="26.488,10.785 27.579,11.08 30.244,3.811 27.798,3.156 		"/>
	</g>
	<g>
		<polygon points="29.07,15.259 29.36,14.167 35.838,15.174 35.185,17.617 		"/>
	</g>
	<g>
		<polygon points="29.362,13.658 29.068,12.568 36.336,9.903 36.991,12.348 		"/>
	</g>
</g>
</svg>
