<?xml version="1.0" encoding="utf-8"?>
<!-- Generator: Adobe Illustrator 17.0.0, SVG Export Plug-In . SVG Version: 6.00 Build 0)  -->
<!DOCTYPE svg PUBLIC "-//W3C//DTD SVG 1.1//EN" "http://www.w3.org/Graphics/SVG/1.1/DTD/svg11.dtd">
<svg version="1.1" id="Layer_1" xmlns="http://www.w3.org/2000/svg" xmlns:xlink="http://www.w3.org/1999/xlink" x="0px" y="0px"
	 width="40px" height="22px" viewBox="0 0 40 22" enable-background="new 0 0 40 22" xml:space="preserve">
<line fill="none" x1="2" y1="2" x2="2" y2="20"/>
<rect fill="none" width="40" height="22"/>
<g>
	<path d="M29.559,14.514c1.031,0,1.868,0.838,1.868,1.87c0,1.031-0.838,1.868-1.868,1.868c-1.033,0-1.869-0.838-1.869-1.868
		C27.69,15.352,28.527,14.514,29.559,14.514z"/>
	<g>
		<polygon points="28.994,13.293 30.125,13.293 30.825,3.81 28.294,3.81 		"/>
	</g>
	<g>
		<polygon points="26.601,15.324 27.167,14.347 21.876,10.478 20.611,12.668 		"/>
	</g>
	<g>
		<polygon points="27.527,13.986 28.507,13.423 25.252,6.399 23.059,7.665 		"/>
	</g>
	<g>
		<polygon points="32.517,15.324 31.95,14.347 37.242,10.478 38.508,12.668 		"/>
	</g>
	<g>
		<polygon points="31.591,13.986 30.612,13.423 33.867,6.399 36.059,7.665 		"/>
	</g>
</g>
</svg>
