<?xml version="1.0" encoding="utf-8"?>
<!-- Generator: Adobe Illustrator 17.0.0, SVG Export Plug-In . SVG Version: 6.00 Build 0)  -->
<!DOCTYPE svg PUBLIC "-//W3C//DTD SVG 1.1//EN" "http://www.w3.org/Graphics/SVG/1.1/DTD/svg11.dtd">
<svg version="1.1" id="Layer_1" xmlns="http://www.w3.org/2000/svg" xmlns:xlink="http://www.w3.org/1999/xlink" x="0px" y="0px"
	 width="16px" height="16px" viewBox="0 0 16 16" enable-background="new 0 0 16 16" xml:space="preserve">
<g>
	<path d="M15,11.89c0,1.711-1.403,3.111-3.116,3.111H4.116C2.401,15.001,1,13.601,1,11.89V4.112c0-1.711,1.403-3.111,3.116-3.111
		h7.768c1.715,0,3.116,1.4,3.116,3.111V11.89z"/>
</g>
<rect fill="none" width="16" height="16"/>
<g>
	<path fill="#FFFFFF" d="M5.831,8c0,0.642-0.522,1.164-1.165,1.164C4.024,9.164,3.502,8.642,3.502,8
		c0-0.643,0.522-1.164,1.164-1.164C5.309,6.836,5.831,7.357,5.831,8z"/>
	<g>
		<polygon fill="#FFFFFF" points="6.592,7.648 6.592,8.352 12.498,8.788 12.498,7.212 		"/>
	</g>
	<g>
		<polygon fill="#FFFFFF" points="5.327,6.157 5.935,6.51 8.345,3.215 6.981,2.427 		"/>
	</g>
	<g>
		<polygon fill="#FFFFFF" points="6.16,6.734 6.51,7.344 10.885,5.317 10.097,3.951 		"/>
	</g>
	<g>
		<polygon fill="#FFFFFF" points="5.327,9.842 5.935,9.489 8.345,12.785 6.981,13.573 		"/>
	</g>
	<g>
		<polygon fill="#FFFFFF" points="6.16,9.265 6.51,8.656 10.885,10.683 10.097,12.048 		"/>
	</g>
</g>
</svg>
