<?xml version="1.0" encoding="utf-8"?>
<!-- Generator: Adobe Illustrator 17.0.0, SVG Export Plug-In . SVG Version: 6.00 Build 0)  -->
<!DOCTYPE svg PUBLIC "-//W3C//DTD SVG 1.1//EN" "http://www.w3.org/Graphics/SVG/1.1/DTD/svg11.dtd">
<svg version="1.1" id="Layer_1" xmlns="http://www.w3.org/2000/svg" xmlns:xlink="http://www.w3.org/1999/xlink" x="0px" y="0px"
	 width="40px" height="22px" viewBox="0 0 40 22" enable-background="new 0 0 40 22" xml:space="preserve">
<line fill="none" x1="2" y1="2" x2="2" y2="20"/>
<rect fill="none" width="40" height="22"/>
<g>
	<path d="M30.808,7.496c-0.893-0.516-1.199-1.66-0.683-2.553c0.516-0.893,1.66-1.199,2.552-0.684c0.895,0.516,1.2,1.66,0.685,2.552
		C32.846,7.705,31.702,8.012,30.808,7.496z"/>
	<g>
		<polygon points="30.687,8.836 29.708,8.271 24.36,16.133 26.552,17.399 		"/>
	</g>
	<g>
		<polygon points="33.775,8.274 32.796,8.837 35.444,14.833 37.635,13.569 		"/>
	</g>
	<g>
		<polygon points="32.304,8.97 31.174,8.967 30.481,16.678 33.013,16.678 		"/>
	</g>
	<g>
		<polygon points="28.652,5.316 28.654,6.446 22.137,7.15 22.135,4.621 		"/>
	</g>
	<g>
		<polygon points="28.785,6.938 29.351,7.915 23.02,12.37 21.755,10.178 		"/>
	</g>
</g>
</svg>
