<?xml version="1.0" encoding="utf-8"?>
<!-- Generator: Adobe Illustrator 17.0.0, SVG Export Plug-In . SVG Version: 6.00 Build 0)  -->
<!DOCTYPE svg PUBLIC "-//W3C//DTD SVG 1.1//EN" "http://www.w3.org/Graphics/SVG/1.1/DTD/svg11.dtd">
<svg version="1.1" id="Layer_1" xmlns="http://www.w3.org/2000/svg" xmlns:xlink="http://www.w3.org/1999/xlink" x="0px" y="0px"
	 width="16px" height="16px" viewBox="0 0 16 16" enable-background="new 0 0 16 16" xml:space="preserve">
<rect fill="none" width="16" height="16"/>
<g>
	<path d="M8,10.699c0.799,0,1.448,0.649,1.448,1.45c0,0.799-0.649,1.448-1.448,1.448c-0.8,0-1.449-0.649-1.449-1.448
		C6.551,11.348,7.2,10.699,8,10.699z"/>
	<g>
		<polygon points="7.562,9.752 8.438,9.752 8.981,2.403 7.019,2.403 		"/>
	</g>
	<g>
		<polygon points="5.707,11.327 6.146,10.57 2.046,7.571 1.065,9.268 		"/>
	</g>
	<g>
		<polygon points="6.425,10.289 7.184,9.854 4.662,4.41 2.962,5.391 		"/>
	</g>
	<g>
		<polygon points="10.292,11.327 9.853,10.57 13.954,7.571 14.935,9.268 		"/>
	</g>
	<g>
		<polygon points="9.574,10.289 8.816,9.854 11.338,4.41 13.037,5.391 		"/>
	</g>
</g>
</svg>
