<?xml version="1.0" encoding="utf-8"?>
<!-- Generator: Adobe Illustrator 17.0.0, SVG Export Plug-In . SVG Version: 6.00 Build 0)  -->
<!DOCTYPE svg PUBLIC "-//W3C//DTD SVG 1.1//EN" "http://www.w3.org/Graphics/SVG/1.1/DTD/svg11.dtd">
<svg version="1.1" id="Layer_1" xmlns="http://www.w3.org/2000/svg" xmlns:xlink="http://www.w3.org/1999/xlink" x="0px" y="0px"
	 width="40px" height="22px" viewBox="0 0 40 22" enable-background="new 0 0 40 22" xml:space="preserve">
<line fill="none" x1="2" y1="2" x2="2" y2="20"/>
<rect fill="none" width="40" height="22"/>
<g>
	<path d="M28.118,7.431c-0.996,0.267-2.021-0.326-2.288-1.323c-0.267-0.996,0.326-2.021,1.321-2.288
		c0.998-0.267,2.022,0.326,2.289,1.321C29.706,6.138,29.114,7.164,28.118,7.431z"/>
	<g>
		<polygon points="28.979,8.465 27.887,8.757 29.665,18.098 32.11,17.443 		"/>
	</g>
	<g>
		<polygon points="30.765,5.883 30.471,6.974 36.583,9.341 37.239,6.899 		"/>
	</g>
	<g>
		<polygon points="30.217,7.415 29.416,8.213 34.378,14.155 36.169,12.365 		"/>
	</g>
	<g>
		<polygon points="25.051,7.415 25.851,8.211 21.741,13.318 19.951,11.531 		"/>
	</g>
	<g>
		<polygon points="26.292,8.467 27.383,8.758 26.057,16.385 23.612,15.729 		"/>
	</g>
</g>
</svg>
