<?xml version="1.0" encoding="utf-8"?>
<!-- Generator: Adobe Illustrator 17.0.0, SVG Export Plug-In . SVG Version: 6.00 Build 0)  -->
<!DOCTYPE svg PUBLIC "-//W3C//DTD SVG 1.1//EN" "http://www.w3.org/Graphics/SVG/1.1/DTD/svg11.dtd">
<svg version="1.1" id="Layer_1" xmlns="http://www.w3.org/2000/svg" xmlns:xlink="http://www.w3.org/1999/xlink" x="0px" y="0px"
	 width="40px" height="22px" viewBox="0 0 40 22" enable-background="new 0 0 40 22" xml:space="preserve">
<line fill="none" x1="2" y1="2" x2="2" y2="20"/>
<rect fill="none" width="40" height="22"/>
<g>
	<path d="M26.493,9.586c-0.516,0.893-1.66,1.199-2.553,0.683c-0.893-0.516-1.199-1.66-0.684-2.552c0.516-0.895,1.66-1.2,2.552-0.685
		C26.702,7.549,27.009,8.693,26.493,9.586z"/>
	<g>
		<polygon points="27.833,9.708 27.267,10.687 35.13,16.035 36.395,13.843 		"/>
	</g>
	<g>
		<polygon points="27.27,6.62 27.834,7.598 33.83,4.951 32.566,2.76 		"/>
	</g>
	<g>
		<polygon points="27.966,8.091 27.964,9.221 35.674,9.914 35.674,7.382 		"/>
	</g>
	<g>
		<polygon points="24.312,11.743 25.442,11.741 26.147,18.258 23.617,18.26 		"/>
	</g>
	<g>
		<polygon points="25.934,11.61 26.911,11.044 31.367,17.375 29.174,18.64 		"/>
	</g>
</g>
</svg>
