<?xml version="1.0" encoding="utf-8"?>
<!-- Generator: Adobe Illustrator 17.0.0, SVG Export Plug-In . SVG Version: 6.00 Build 0)  -->
<!DOCTYPE svg PUBLIC "-//W3C//DTD SVG 1.1//EN" "http://www.w3.org/Graphics/SVG/1.1/DTD/svg11.dtd">
<svg version="1.1" id="Layer_1" xmlns="http://www.w3.org/2000/svg" xmlns:xlink="http://www.w3.org/1999/xlink" x="0px" y="0px"
	 width="40px" height="22px" viewBox="0 0 40 22" enable-background="new 0 0 40 22" xml:space="preserve">
<line fill="none" x1="2" y1="2" x2="2" y2="20"/>
<rect fill="none" width="40" height="22"/>
<g>
	<path d="M29.019,7.313c-1.031,0-1.868-0.838-1.868-1.87c0-1.031,0.838-1.868,1.868-1.868c1.033,0,1.869,0.838,1.869,1.868
		C30.888,6.475,30.051,7.313,29.019,7.313z"/>
	<g>
		<polygon points="29.584,8.534 28.453,8.534 27.753,18.017 30.284,18.017 		"/>
	</g>
	<g>
		<polygon points="31.977,6.503 31.411,7.48 36.702,11.349 37.967,9.159 		"/>
	</g>
	<g>
		<polygon points="31.051,7.841 30.071,8.404 33.326,15.428 35.519,14.162 		"/>
	</g>
	<g>
		<polygon points="26.061,6.503 26.628,7.48 21.336,11.349 20.07,9.159 		"/>
	</g>
	<g>
		<polygon points="26.987,7.841 27.966,8.404 24.711,15.428 22.519,14.162 		"/>
	</g>
</g>
</svg>
