<?xml version="1.0" encoding="utf-8"?>
<!-- Generator: Adobe Illustrator 17.0.0, SVG Export Plug-In . SVG Version: 6.00 Build 0)  -->
<!DOCTYPE svg PUBLIC "-//W3C//DTD SVG 1.1//EN" "http://www.w3.org/Graphics/SVG/1.1/DTD/svg11.dtd">
<svg version="1.1" id="Layer_1" xmlns="http://www.w3.org/2000/svg" xmlns:xlink="http://www.w3.org/1999/xlink" x="0px" y="0px"
	 width="40px" height="22px" viewBox="0 0 40 22" enable-background="new 0 0 40 22" xml:space="preserve">
<line fill="none" x1="2" y1="2" x2="2" y2="20"/>
<rect fill="none" width="40" height="22"/>
<g>
	<path d="M33.136,11.409c0-1.031,0.838-1.868,1.87-1.868c1.031,0,1.868,0.838,1.868,1.868c0,1.033-0.838,1.869-1.868,1.869
		C33.974,13.278,33.136,12.441,33.136,11.409z"/>
	<g>
		<polygon points="31.915,11.974 31.915,10.843 22.432,10.143 22.432,12.674 		"/>
	</g>
	<g>
		<polygon points="33.946,14.367 32.969,13.801 29.1,19.092 31.29,20.357 		"/>
	</g>
	<g>
		<polygon points="32.608,13.441 32.045,12.461 25.021,15.716 26.287,17.909 		"/>
	</g>
	<g>
		<polygon points="33.946,8.451 32.969,9.018 29.1,3.726 31.29,2.46 		"/>
	</g>
	<g>
		<polygon points="32.608,9.377 32.045,10.356 25.021,7.101 26.287,4.909 		"/>
	</g>
</g>
</svg>
