<?xml version="1.0" encoding="utf-8"?>
<!-- Generator: Adobe Illustrator 17.0.0, SVG Export Plug-In . SVG Version: 6.00 Build 0)  -->
<!DOCTYPE svg PUBLIC "-//W3C//DTD SVG 1.1//EN" "http://www.w3.org/Graphics/SVG/1.1/DTD/svg11.dtd">
<svg version="1.1" id="Layer_1" xmlns="http://www.w3.org/2000/svg" xmlns:xlink="http://www.w3.org/1999/xlink" x="0px" y="0px"
	 width="40px" height="22px" viewBox="0 0 40 22" enable-background="new 0 0 40 22" xml:space="preserve">
<line fill="none" x1="2" y1="2" x2="2" y2="20"/>
<rect fill="none" width="40" height="22"/>
<g>
	<path d="M28.199,7.682c-0.893,0.516-2.037,0.208-2.553-0.685c-0.516-0.893-0.208-2.037,0.684-2.552
		c0.895-0.516,2.038-0.209,2.553,0.683C29.398,6.021,29.093,7.166,28.199,7.682z"/>
	<g>
		<polygon points="29.299,8.457 28.319,9.022 32.454,17.585 34.646,16.319 		"/>
	</g>
	<g>
		<polygon points="30.355,5.501 30.354,6.63 36.87,7.335 36.871,4.806 		"/>
	</g>
	<g>
		<polygon points="30.223,7.123 29.655,8.1 35.986,12.556 37.252,10.363 		"/>
	</g>
	<g>
		<polygon points="25.232,8.459 26.212,9.022 23.563,15.018 21.372,13.755 		"/>
	</g>
	<g>
		<polygon points="26.703,9.155 27.832,9.153 28.525,16.863 25.994,16.863 		"/>
	</g>
</g>
</svg>
