<?xml version="1.0" encoding="utf-8"?>
<!-- Generator: Adobe Illustrator 17.0.0, SVG Export Plug-In . SVG Version: 6.00 Build 0)  -->
<!DOCTYPE svg PUBLIC "-//W3C//DTD SVG 1.1//EN" "http://www.w3.org/Graphics/SVG/1.1/DTD/svg11.dtd">
<svg version="1.1" id="Layer_1" xmlns="http://www.w3.org/2000/svg" xmlns:xlink="http://www.w3.org/1999/xlink" x="0px" y="0px"
	 width="40px" height="22px" viewBox="0 0 40 22" enable-background="new 0 0 40 22" xml:space="preserve">
<line fill="none" x1="2" y1="2" x2="2" y2="20"/>
<rect fill="none" width="40" height="22"/>
<g>
	<path d="M30.46,14.395c0.996-0.267,2.021,0.326,2.288,1.323c0.267,0.996-0.326,2.021-1.321,2.288
		c-0.998,0.267-2.022-0.326-2.289-1.321C28.872,15.689,29.464,14.663,30.46,14.395z"/>
	<g>
		<polygon points="29.599,13.362 30.691,13.07 28.913,3.729 26.468,4.384 		"/>
	</g>
	<g>
		<polygon points="27.813,15.943 28.107,14.853 21.995,12.485 21.34,14.928 		"/>
	</g>
	<g>
		<polygon points="28.361,14.411 29.162,13.614 24.2,7.672 22.409,9.462 		"/>
	</g>
	<g>
		<polygon points="33.527,14.412 32.727,13.615 36.837,8.508 38.627,10.296 		"/>
	</g>
	<g>
		<polygon points="32.287,13.36 31.195,13.069 32.521,5.442 34.966,6.097 		"/>
	</g>
</g>
</svg>
