<?xml version="1.0" encoding="utf-8"?>
<!-- Generator: Adobe Illustrator 17.0.0, SVG Export Plug-In . SVG Version: 6.00 Build 0)  -->
<!DOCTYPE svg PUBLIC "-//W3C//DTD SVG 1.1//EN" "http://www.w3.org/Graphics/SVG/1.1/DTD/svg11.dtd">
<svg version="1.1" id="Layer_1" xmlns="http://www.w3.org/2000/svg" xmlns:xlink="http://www.w3.org/1999/xlink" x="0px" y="0px"
	 width="40px" height="22px" viewBox="0 0 40 22" enable-background="new 0 0 40 22" xml:space="preserve">
<line fill="none" x1="2" y1="2" x2="2" y2="20"/>
<rect fill="none" width="40" height="22"/>
<g>
	<path d="M32.952,13.198c0.515-0.893,1.66-1.199,2.553-0.683c0.893,0.516,1.199,1.66,0.684,2.552c-0.516,0.895-1.66,1.2-2.552,0.685
		C32.744,15.236,32.436,14.092,32.952,13.198z"/>
	<g>
		<polygon points="31.612,13.077 32.178,12.098 24.315,6.75 23.05,8.942 		"/>
	</g>
	<g>
		<polygon points="32.175,16.165 31.612,15.186 25.616,17.834 26.88,20.025 		"/>
	</g>
	<g>
		<polygon points="31.479,14.694 31.481,13.564 23.771,12.871 23.771,15.403 		"/>
	</g>
	<g>
		<polygon points="35.133,11.042 34.003,11.044 33.299,4.527 35.828,4.525 		"/>
	</g>
	<g>
		<polygon points="33.511,11.175 32.534,11.741 28.079,5.41 30.271,4.145 		"/>
	</g>
</g>
</svg>
