<?xml version="1.0" encoding="utf-8"?>
<!-- Generator: Adobe Illustrator 17.0.0, SVG Export Plug-In . SVG Version: 6.00 Build 0)  -->
<!DOCTYPE svg PUBLIC "-//W3C//DTD SVG 1.1//EN" "http://www.w3.org/Graphics/SVG/1.1/DTD/svg11.dtd">
<svg version="1.1" id="Layer_1" xmlns="http://www.w3.org/2000/svg" xmlns:xlink="http://www.w3.org/1999/xlink" x="0px" y="0px"
	 width="32px" height="16.001px" viewBox="-305.5 396.5 32 16.001" enable-background="new -305.5 396.5 32 16.001"
	 xml:space="preserve">
<g>
	<path d="M-273.5,408.945c0,1.956-1.603,3.556-3.562,3.556h-8.877c-1.959,0-3.562-1.6-3.562-3.556v-8.889
		c0-1.956,1.603-3.556,3.562-3.556h8.877c1.959,0,3.562,1.6,3.562,3.556V408.945z"/>
</g>
<g>
	<path id="path4870" fill="#FFFFFF" stroke="#FFFFFF" stroke-width="0.5" stroke-miterlimit="10" d="M-285.919,400.091h3.741v0.363
		h-0.363v0.4l-3.378,0.294V400.091z"/>
	<path id="path4872" fill="#FFFFFF" stroke="#FFFFFF" stroke-width="0.5" stroke-miterlimit="10" d="M-280.607,401.172
		c0.476,0,0.861-0.384,0.861-0.862c0-0.476-0.385-0.864-0.861-0.864c-0.478,0-0.864,0.388-0.864,0.864
		C-281.471,400.787-281.085,401.172-280.607,401.172"/>
	<path id="path4874" fill="#FFFFFF" stroke="#FFFFFF" stroke-width="0.5" stroke-miterlimit="10" d="M-279.955,401.123
		c0.247-0.244,0.645-0.244,0.892,0l1.867,1.864c0.072,0.072,0.115,0.171,0.115,0.278v5.593c0,0.385-0.311,0.696-0.696,0.696
		s-0.701-0.311-0.701-0.696v-4.614l-1.74-1.741l-0.696,0.696c-0.078,0.094-0.196,0.156-0.332,0.156c-0.124,0-0.236-0.053-0.316-0.14
		l-1.198-1.201c-0.153-0.181-0.14-0.457,0.041-0.61c0.181-0.153,0.451-0.127,0.604,0.054l0.911,0.915L-279.955,401.123z"/>
	<path id="path4876" fill="#FFFFFF" stroke="#FFFFFF" stroke-width="0.5" stroke-miterlimit="10" d="M-283.583,401.388
		c-0.017-0.084-0.091-0.145-0.178-0.145c-0.09,0-0.163,0.064-0.179,0.15l-0.291,1.666v6.452h2.463v-0.915h-1.512l-0.01-5.537
		L-283.583,401.388z"/>
</g>
<line fill="none" x1="-305.5" y1="396.5" x2="-305.5" y2="412.5"/>
</svg>
