<?xml version="1.0" encoding="utf-8"?>
<!-- Generator: Adobe Illustrator 17.0.0, SVG Export Plug-In . SVG Version: 6.00 Build 0)  -->
<!DOCTYPE svg PUBLIC "-//W3C//DTD SVG 1.1//EN" "http://www.w3.org/Graphics/SVG/1.1/DTD/svg11.dtd">
<svg version="1.1" id="Layer_1" xmlns="http://www.w3.org/2000/svg" xmlns:xlink="http://www.w3.org/1999/xlink" x="0px" y="0px"
	 width="40px" height="22px" viewBox="0 0 40 22" enable-background="new 0 0 40 22" xml:space="preserve">
<line fill="none" x1="2" y1="2" x2="2" y2="20"/>
<rect fill="none" width="40" height="22"/>
<g>
	<path d="M31.498,14.185c0.893-0.516,2.037-0.208,2.553,0.685c0.516,0.893,0.208,2.037-0.684,2.552
		c-0.895,0.516-2.038,0.209-2.553-0.683C30.298,15.845,30.604,14.701,31.498,14.185z"/>
	<g>
		<polygon points="30.398,13.41 31.377,12.844 27.242,4.282 25.05,5.547 		"/>
	</g>
	<g>
		<polygon points="29.341,16.365 29.343,15.236 22.826,14.531 22.825,17.06 		"/>
	</g>
	<g>
		<polygon points="29.474,14.743 30.041,13.766 23.71,9.31 22.444,11.503 		"/>
	</g>
	<g>
		<polygon points="34.464,13.407 33.485,12.845 36.133,6.848 38.325,8.112 		"/>
	</g>
	<g>
		<polygon points="32.993,12.711 31.864,12.713 31.171,5.003 33.702,5.003 		"/>
	</g>
</g>
</svg>
