<?xml version="1.0" encoding="utf-8"?>
<!-- Generator: Adobe Illustrator 17.0.0, SVG Export Plug-In . SVG Version: 6.00 Build 0)  -->
<!DOCTYPE svg PUBLIC "-//W3C//DTD SVG 1.1//EN" "http://www.w3.org/Graphics/SVG/1.1/DTD/svg11.dtd">
<svg version="1.1" id="Layer_1" xmlns="http://www.w3.org/2000/svg" xmlns:xlink="http://www.w3.org/1999/xlink" x="0px" y="0px"
	 width="16px" height="16px" viewBox="-298.5 387.5 16 16" enable-background="new -298.5 387.5 16 16" xml:space="preserve">
<g>
	<path fill="#616162" d="M-282.5,399.945c0,1.955-1.603,3.555-3.561,3.555h-8.877c-1.959,0-3.561-1.6-3.561-3.555v-8.889
		c0-1.955,1.603-3.555,3.561-3.555h8.877c1.959,0,3.561,1.6,3.561,3.555V399.945z"/>
</g>
<path fill="#FFFFFF" d="M-289.978,390.379h-4.339v10.242h1.976v-3.364h2.276c1.721,0.002,3.385-1.466,3.382-3.433
	C-286.681,392.078-288.079,390.38-289.978,390.379z M-290.103,395.375h-2.213v-3.095h2.239c0.726-0.002,1.457,0.67,1.457,1.57
	C-288.621,394.749-289.303,395.373-290.103,395.375z"/>
</svg>
