<?xml version="1.0" encoding="utf-8"?>
<!-- Generator: Adobe Illustrator 17.0.0, SVG Export Plug-In . SVG Version: 6.00 Build 0)  -->
<!DOCTYPE svg PUBLIC "-//W3C//DTD SVG 1.1//EN" "http://www.w3.org/Graphics/SVG/1.1/DTD/svg11.dtd">
<svg version="1.1" id="Layer_1" xmlns="http://www.w3.org/2000/svg" xmlns:xlink="http://www.w3.org/1999/xlink" x="0px" y="0px"
	 width="14px" height="14px" viewBox="-303.5 398.5 14 14" enable-background="new -303.5 398.5 14 14" xml:space="preserve">
<g>
	<path fill="#616162" d="M-289.446,409.38c0,1.716-1.408,3.12-3.128,3.12h-7.797c-1.721,0-3.128-1.404-3.128-3.12v-7.801
		c0-1.716,1.408-3.12,3.128-3.12h7.797c1.721,0,3.128,1.404,3.128,3.12V409.38z"/>
</g>
<path fill="#FFFFFF" d="M-295.93,401.008h-3.806v8.984h1.733v-2.951h1.996c1.51,0.002,2.969-1.286,2.967-3.011
	C-293.038,402.498-294.264,401.009-295.93,401.008z M-296.04,405.39h-1.941v-2.715h1.964c0.637-0.002,1.278,0.588,1.278,1.377
	C-294.74,404.841-295.338,405.389-296.04,405.39z"/>
</svg>
