<?xml version="1.0" encoding="utf-8"?>
<!-- Generator: Adobe Illustrator 17.0.0, SVG Export Plug-In . SVG Version: 6.00 Build 0)  -->
<!DOCTYPE svg PUBLIC "-//W3C//DTD SVG 1.1//EN" "http://www.w3.org/Graphics/SVG/1.1/DTD/svg11.dtd">
<svg version="1.1" id="Layer_1" xmlns="http://www.w3.org/2000/svg" xmlns:xlink="http://www.w3.org/1999/xlink" x="0px" y="0px"
	 width="20px" height="20px" viewBox="-307.5 394.5 20 20" enable-background="new -307.5 394.5 20 20" xml:space="preserve">
<g>
	<path fill="#616162" d="M-289.5,408.945c0,1.955-1.603,3.555-3.561,3.555h-8.877c-1.959,0-3.561-1.6-3.561-3.555v-8.889
		c0-1.955,1.603-3.555,3.561-3.555h8.877c1.959,0,3.561,1.6,3.561,3.555V408.945z"/>
</g>
<path fill="#FFFFFF" d="M-296.978,399.379h-4.339v10.242h1.976v-3.364h2.276c1.721,0.002,3.385-1.466,3.382-3.433
	C-293.681,401.078-295.079,399.38-296.978,399.379z M-297.103,404.375h-2.213v-3.095h2.239c0.726-0.002,1.457,0.67,1.457,1.57
	C-295.621,403.749-296.303,404.373-297.103,404.375z"/>
<rect x="-307.5" y="394.5" fill="none" width="20" height="20"/>
</svg>
