<?xml version="1.0" encoding="utf-8"?>
<!-- Generator: Adobe Illustrator 17.0.0, SVG Export Plug-In . SVG Version: 6.00 Build 0)  -->
<!DOCTYPE svg PUBLIC "-//W3C//DTD SVG 1.1//EN" "http://www.w3.org/Graphics/SVG/1.1/DTD/svg11.dtd">
<svg version="1.1" id="Layer_1" xmlns="http://www.w3.org/2000/svg" xmlns:xlink="http://www.w3.org/1999/xlink" x="0px" y="0px"
	 width="20px" height="20px" viewBox="-480.5 279.5 20 20" enable-background="new -480.5 279.5 20 20" xml:space="preserve">
<g>
	<path fill="none" stroke="#616162" stroke-miterlimit="10" d="M-463.5,293.389c0,1.711-1.403,3.111-3.116,3.111h-7.768
		c-1.715,0-3.116-1.4-3.116-3.111v-7.778c0-1.711,1.403-3.111,3.116-3.111h7.768c1.715,0,3.116,1.4,3.116,3.111V293.389z"/>
</g>
<path fill="#616162" d="M-470.042,285.008h-3.806v8.984h1.733v-2.951h1.996c1.51,0.002,2.969-1.286,2.967-3.011
	C-467.15,286.498-468.376,285.009-470.042,285.008z M-470.152,289.39h-1.941v-2.715h1.964c0.637-0.002,1.278,0.588,1.278,1.377
	C-468.852,288.841-469.45,289.389-470.152,289.39z"/>
<rect x="-480.5" y="279.5" fill="none" width="20" height="20"/>
</svg>
