<?xml version="1.0" encoding="utf-8"?>
<!-- Generator: Adobe Illustrator 17.0.0, SVG Export Plug-In . SVG Version: 6.00 Build 0)  -->
<!DOCTYPE svg PUBLIC "-//W3C//DTD SVG 1.1//EN" "http://www.w3.org/Graphics/SVG/1.1/DTD/svg11.dtd">
<svg version="1.1" id="Layer_1" xmlns="http://www.w3.org/2000/svg" xmlns:xlink="http://www.w3.org/1999/xlink" x="0px" y="0px"
	 width="18px" height="18px" viewBox="-307.5 394.5 18 18" enable-background="new -307.5 394.5 18 18" xml:space="preserve">
<g>
	<path fill="#616162" d="M-291.5,407.389c0,1.711-1.403,3.111-3.116,3.111h-7.768c-1.715,0-3.116-1.4-3.116-3.111v-7.778
		c0-1.711,1.403-3.111,3.116-3.111h7.768c1.715,0,3.116,1.4,3.116,3.111V407.389z"/>
</g>
<path fill="#FFFFFF" d="M-298.042,399.008h-3.806v8.984h1.733v-2.951h1.996c1.51,0.002,2.969-1.286,2.967-3.011
	C-295.15,400.498-296.376,399.009-298.042,399.008z M-298.152,403.39h-1.941v-2.715h1.964c0.637-0.002,1.278,0.588,1.278,1.377
	C-296.852,402.841-297.45,403.389-298.152,403.39z"/>
<rect x="-307.5" y="394.5" fill="none" width="18" height="18"/>
</svg>
