<?xml version="1.0" encoding="utf-8"?>
<!-- Generator: Adobe Illustrator 17.0.0, SVG Export Plug-In . SVG Version: 6.00 Build 0)  -->
<!DOCTYPE svg PUBLIC "-//W3C//DTD SVG 1.1//EN" "http://www.w3.org/Graphics/SVG/1.1/DTD/svg11.dtd">
<svg version="1.1" id="Layer_1" xmlns="http://www.w3.org/2000/svg" xmlns:xlink="http://www.w3.org/1999/xlink" x="0px" y="0px"
	 width="22px" height="22px" viewBox="-480.5 279.5 22 22" enable-background="new -480.5 279.5 22 22" xml:space="preserve">
<g>
	<path fill="none" stroke="#616162" stroke-miterlimit="10" d="M-461.5,294.945c0,1.955-1.603,3.555-3.561,3.555h-8.877
		c-1.959,0-3.561-1.6-3.561-3.555v-8.889c0-1.955,1.603-3.555,3.561-3.555h8.877c1.959,0,3.561,1.6,3.561,3.555V294.945z"/>
</g>
<path fill="#616162" d="M-468.978,285.379h-4.339v10.242h1.976v-3.364h2.276c1.721,0.002,3.385-1.466,3.382-3.433
	C-465.681,287.078-467.079,285.38-468.978,285.379z M-469.103,290.375h-2.213v-3.095h2.239c0.726-0.002,1.457,0.67,1.457,1.57
	C-467.621,289.749-468.303,290.373-469.103,290.375z"/>
<rect x="-480.593" y="279.5" fill="none" width="22.093" height="22"/>
</svg>
