<?xml version="1.0" encoding="utf-8"?>
<!-- Generator: Adobe Illustrator 17.0.0, SVG Export Plug-In . SVG Version: 6.00 Build 0)  -->
<!DOCTYPE svg PUBLIC "-//W3C//DTD SVG 1.1//EN" "http://www.w3.org/Graphics/SVG/1.1/DTD/svg11.dtd">
<svg version="1.1" id="Layer_1" xmlns="http://www.w3.org/2000/svg" xmlns:xlink="http://www.w3.org/1999/xlink" x="0px" y="0px"
	 width="14.053px" height="14.041px" viewBox="-305.527 396.48 14.053 14.041"
	 enable-background="new -305.527 396.48 14.053 14.041" xml:space="preserve">
<g>
	<path d="M-291.474,407.401c0,1.716-1.408,3.12-3.128,3.12h-7.797c-1.721,0-3.128-1.404-3.128-3.12V399.6
		c0-1.716,1.408-3.12,3.128-3.12h7.797c1.721,0,3.128,1.404,3.128,3.12V407.401z"/>
</g>
<g>
	<path fill="#FFFFFF" d="M-301.439,404.863v2.531c0,0.099-0.032,0.181-0.094,0.241c-0.061,0.063-0.142,0.093-0.241,0.093
		s-0.185-0.03-0.251-0.093c-0.07-0.06-0.103-0.142-0.103-0.241v-2.531h-0.948l0.986-3.333h-0.17
		c-0.108,0.375-0.199,0.675-0.27,0.913c-0.065,0.238-0.136,0.462-0.197,0.679c-0.071,0.214-0.118,0.35-0.123,0.396
		c-0.043,0.141-0.136,0.21-0.283,0.21l-0.075-0.018c-0.137-0.05-0.204-0.139-0.204-0.265c0-0.034,0.005-0.063,0.019-0.091
		c0.009-0.024,0.038-0.108,0.071-0.25c0.038-0.141,0.089-0.316,0.151-0.52c0.061-0.207,0.128-0.431,0.198-0.671
		c0.071-0.241,0.137-0.474,0.217-0.698c0.047-0.172,0.151-0.328,0.312-0.463c0.16-0.141,0.326-0.204,0.5-0.204h1.161
		c0.179,0,0.354,0.064,0.51,0.204c0.151,0.135,0.26,0.291,0.321,0.463c0.065,0.224,0.132,0.457,0.197,0.698
		c0.067,0.24,0.138,0.464,0.195,0.671c0.06,0.203,0.113,0.379,0.15,0.52c0.037,0.142,0.061,0.226,0.075,0.25l0.019,0.075
		c0,0.152-0.071,0.241-0.208,0.281l-0.071,0.018c-0.15,0-0.245-0.068-0.283-0.21c-0.01-0.047-0.052-0.183-0.108-0.396
		c-0.066-0.217-0.133-0.441-0.208-0.679c-0.075-0.238-0.164-0.538-0.272-0.913h-0.17l0.985,3.333h-0.933v2.531
		c0,0.099-0.028,0.181-0.104,0.241c-0.066,0.063-0.147,0.093-0.245,0.093c-0.104,0-0.18-0.03-0.245-0.093
		c-0.062-0.06-0.089-0.142-0.089-0.241v-2.531H-301.439z"/>
	<path fill="#FFFFFF" d="M-301.345,400.338c0.199,0,0.369-0.065,0.501-0.201c0.137-0.139,0.208-0.312,0.208-0.521
		c0-0.199-0.071-0.369-0.208-0.51c-0.132-0.145-0.302-0.217-0.501-0.217c-0.212,0-0.387,0.072-0.533,0.217
		c-0.142,0.141-0.212,0.311-0.212,0.51c0,0.209,0.07,0.382,0.212,0.521C-301.732,400.274-301.557,400.338-301.345,400.338z"/>
	<path fill="#FFFFFF" d="M-296.136,400.526c-0.255,0-0.472,0.094-0.656,0.276c-0.184,0.189-0.279,0.41-0.279,0.656v2.271
		c0,0.085,0.029,0.163,0.095,0.224c0.061,0.061,0.136,0.089,0.222,0.089c0.099,0,0.174-0.028,0.235-0.089
		c0.053-0.062,0.08-0.139,0.08-0.224v-2.031h0.165v5.624c0,0.108,0.047,0.207,0.137,0.285c0.085,0.085,0.183,0.121,0.296,0.121
		c0.123,0,0.223-0.036,0.302-0.121c0.085-0.078,0.124-0.177,0.124-0.285v-3.26h0.183v3.26c0,0.108,0.043,0.207,0.122,0.285
		c0.08,0.085,0.185,0.121,0.312,0.121c0.108,0,0.202-0.036,0.288-0.121c0.079-0.078,0.116-0.177,0.116-0.285v-5.624h0.171v2.031
		c0,0.085,0.028,0.163,0.084,0.224c0.067,0.061,0.146,0.089,0.231,0.089c0.099,0,0.175-0.028,0.232-0.089
		c0.051-0.062,0.084-0.139,0.084-0.224v-2.271c0-0.245-0.089-0.466-0.274-0.656c-0.18-0.182-0.396-0.276-0.66-0.276H-296.136
		L-296.136,400.526z"/>
	<path fill="#FFFFFF" d="M-295.325,400.338c0.198,0,0.373-0.065,0.514-0.201c0.141-0.139,0.212-0.312,0.212-0.521
		c0-0.199-0.072-0.369-0.212-0.51c-0.141-0.145-0.316-0.217-0.514-0.217c-0.207,0-0.383,0.072-0.515,0.217
		c-0.141,0.141-0.207,0.311-0.207,0.51c0,0.209,0.066,0.382,0.207,0.521C-295.707,400.274-295.532,400.338-295.325,400.338z"/>
	<rect x="-298.557" y="398.308" fill="#FFFFFF" width="0.717" height="10.383"/>
</g>
</svg>
