<?xml version="1.0" encoding="utf-8"?>
<!-- Generator: Adobe Illustrator 17.0.0, SVG Export Plug-In . SVG Version: 6.00 Build 0)  -->
<!DOCTYPE svg PUBLIC "-//W3C//DTD SVG 1.1//EN" "http://www.w3.org/Graphics/SVG/1.1/DTD/svg11.dtd">
<svg version="1.1" id="Layer_1" xmlns="http://www.w3.org/2000/svg" xmlns:xlink="http://www.w3.org/1999/xlink" x="0px" y="0px"
	 width="18px" height="18px" viewBox="-305.5 396.5 18 18" enable-background="new -305.5 396.5 18 18" xml:space="preserve">
<g>
	<path d="M-287.5,410.5c0,2.2-1.803,4-4.007,4h-9.986c-2.204,0-4.007-1.8-4.007-4v-10c0-2.2,1.803-4,4.007-4h9.986
		c2.204,0,4.007,1.8,4.007,4V410.5z"/>
</g>
<g>
	<path fill="#FFFFFF" d="M-300.477,407.345v3.425c0,0.133-0.044,0.245-0.127,0.326c-0.083,0.085-0.192,0.125-0.326,0.125
		c-0.134,0-0.25-0.04-0.339-0.125c-0.095-0.081-0.14-0.192-0.14-0.326v-3.425h-1.282l1.335-4.51h-0.23
		c-0.146,0.507-0.27,0.913-0.366,1.235c-0.088,0.322-0.184,0.626-0.267,0.919c-0.096,0.289-0.159,0.473-0.167,0.536
		c-0.058,0.191-0.184,0.284-0.382,0.284l-0.102-0.025c-0.186-0.068-0.275-0.188-0.275-0.358c0-0.047,0.006-0.085,0.026-0.124
		c0.013-0.033,0.051-0.146,0.096-0.338c0.051-0.191,0.121-0.428,0.204-0.703c0.083-0.28,0.173-0.583,0.268-0.908
		c0.096-0.327,0.185-0.641,0.294-0.945c0.064-0.232,0.204-0.444,0.422-0.626c0.217-0.19,0.441-0.276,0.676-0.276h1.57
		c0.242,0,0.478,0.086,0.69,0.276c0.205,0.183,0.352,0.394,0.435,0.626c0.088,0.304,0.178,0.618,0.267,0.945
		c0.091,0.325,0.187,0.628,0.263,0.908c0.081,0.275,0.153,0.512,0.203,0.703c0.05,0.192,0.083,0.305,0.102,0.338l0.026,0.102
		c0,0.206-0.096,0.327-0.281,0.38l-0.096,0.025c-0.203,0-0.332-0.092-0.382-0.284c-0.014-0.063-0.07-0.247-0.146-0.536
		c-0.09-0.294-0.18-0.597-0.282-0.919c-0.102-0.322-0.222-0.728-0.369-1.235h-0.231l1.333,4.51h-1.262v3.425
		c0,0.133-0.038,0.245-0.141,0.326c-0.09,0.085-0.199,0.125-0.332,0.125c-0.141,0-0.243-0.04-0.332-0.125
		c-0.083-0.081-0.121-0.192-0.121-0.326v-3.425H-300.477z"/>
	<path fill="#FFFFFF" d="M-300.35,401.222c0.269,0,0.499-0.088,0.678-0.273c0.185-0.188,0.281-0.423,0.281-0.705
		c0-0.269-0.096-0.499-0.281-0.69c-0.178-0.196-0.409-0.294-0.678-0.294c-0.286,0-0.523,0.098-0.721,0.294
		c-0.192,0.19-0.286,0.421-0.286,0.69c0,0.283,0.094,0.517,0.286,0.705C-300.873,401.134-300.636,401.222-300.35,401.222z"/>
	<path fill="#FFFFFF" d="M-293.301,401.475c-0.345,0-0.638,0.127-0.888,0.373c-0.249,0.256-0.377,0.555-0.377,0.887v3.073
		c0,0.115,0.039,0.22,0.128,0.304c0.082,0.083,0.185,0.121,0.301,0.121c0.133,0,0.236-0.038,0.318-0.121
		c0.071-0.083,0.109-0.189,0.109-0.304v-2.748h0.223v7.609c0,0.146,0.064,0.281,0.186,0.386c0.114,0.115,0.248,0.164,0.401,0.164
		c0.167,0,0.301-0.048,0.409-0.164c0.115-0.105,0.167-0.24,0.167-0.386v-4.412h0.248v4.412c0,0.146,0.058,0.281,0.166,0.386
		c0.109,0.115,0.25,0.164,0.423,0.164c0.146,0,0.273-0.048,0.39-0.164c0.107-0.105,0.157-0.24,0.157-0.386v-7.609h0.231v2.748
		c0,0.115,0.038,0.22,0.114,0.304c0.091,0.083,0.198,0.121,0.313,0.121c0.134,0,0.237-0.038,0.314-0.121
		c0.07-0.083,0.114-0.189,0.114-0.304v-3.073c0-0.332-0.121-0.631-0.371-0.887c-0.243-0.246-0.536-0.373-0.893-0.373
		L-293.301,401.475L-293.301,401.475z"/>
	<path fill="#FFFFFF" d="M-292.204,401.222c0.268,0,0.504-0.088,0.695-0.273c0.19-0.188,0.287-0.423,0.287-0.705
		c0-0.269-0.097-0.499-0.287-0.69c-0.191-0.196-0.427-0.294-0.695-0.294c-0.281,0-0.518,0.098-0.697,0.294
		c-0.19,0.19-0.28,0.421-0.28,0.69c0,0.283,0.09,0.517,0.28,0.705C-292.721,401.134-292.484,401.222-292.204,401.222z"/>
	<rect x="-296.577" y="398.475" fill="#FFFFFF" width="0.97" height="14.05"/>
</g>
</svg>
