<?xml version="1.0" encoding="utf-8"?>
<!-- Generator: Adobe Illustrator 17.0.0, SVG Export Plug-In . SVG Version: 6.00 Build 0)  -->
<!DOCTYPE svg PUBLIC "-//W3C//DTD SVG 1.1//EN" "http://www.w3.org/Graphics/SVG/1.1/DTD/svg11.dtd">
<svg version="1.1" id="Layer_1" xmlns="http://www.w3.org/2000/svg" xmlns:xlink="http://www.w3.org/1999/xlink" x="0px" y="0px"
	 width="16.001px" height="16.001px" viewBox="-305.5 396.5 16.001 16.001" enable-background="new -305.5 396.5 16.001 16.001"
	 xml:space="preserve">
<g>
	<path d="M-289.499,408.945c0,1.956-1.603,3.556-3.562,3.556h-8.877c-1.959,0-3.562-1.6-3.562-3.556v-8.889
		c0-1.956,1.603-3.556,3.562-3.556h8.877c1.959,0,3.562,1.6,3.562,3.556V408.945z"/>
</g>
<g>
	<path fill="#FFFFFF" d="M-300.911,406.082v2.937c0,0.114-0.038,0.21-0.109,0.279c-0.071,0.073-0.165,0.107-0.279,0.107
		c-0.115,0-0.214-0.034-0.291-0.107c-0.082-0.069-0.12-0.165-0.12-0.279v-2.937h-1.1l1.145-3.868h-0.197
		c-0.126,0.435-0.231,0.783-0.314,1.059c-0.075,0.276-0.158,0.537-0.229,0.788c-0.082,0.248-0.137,0.406-0.143,0.46
		c-0.049,0.164-0.158,0.243-0.328,0.243l-0.087-0.021c-0.159-0.058-0.236-0.161-0.236-0.307c0-0.04,0.006-0.073,0.022-0.106
		c0.011-0.028,0.044-0.126,0.082-0.29c0.044-0.164,0.103-0.367,0.175-0.603c0.071-0.24,0.148-0.5,0.23-0.779
		c0.082-0.28,0.158-0.55,0.252-0.81c0.055-0.199,0.175-0.381,0.362-0.537c0.186-0.163,0.378-0.237,0.58-0.237h1.347
		c0.208,0,0.41,0.074,0.592,0.237c0.176,0.157,0.302,0.338,0.373,0.537c0.075,0.261,0.153,0.53,0.229,0.81
		c0.078,0.279,0.16,0.539,0.226,0.779c0.07,0.236,0.131,0.439,0.174,0.603c0.043,0.165,0.071,0.262,0.087,0.29l0.022,0.087
		c0,0.177-0.082,0.28-0.241,0.326l-0.083,0.021c-0.174,0-0.285-0.079-0.328-0.243c-0.012-0.054-0.06-0.212-0.126-0.46
		c-0.077-0.252-0.154-0.512-0.242-0.788c-0.087-0.276-0.191-0.624-0.316-1.059h-0.198l1.143,3.868h-1.083v2.937
		c0,0.114-0.033,0.21-0.121,0.279c-0.077,0.073-0.17,0.107-0.285,0.107c-0.121,0-0.209-0.034-0.285-0.107
		c-0.071-0.069-0.104-0.165-0.104-0.279v-2.937H-300.911z"/>
	<path fill="#FFFFFF" d="M-300.802,400.831c0.231,0,0.428-0.075,0.581-0.234c0.158-0.162,0.241-0.362,0.241-0.605
		c0-0.231-0.082-0.428-0.241-0.592c-0.153-0.168-0.351-0.252-0.581-0.252c-0.246,0-0.449,0.084-0.618,0.252
		c-0.165,0.163-0.246,0.361-0.246,0.592c0,0.242,0.081,0.443,0.246,0.605C-301.251,400.756-301.047,400.831-300.802,400.831z"/>
	<path fill="#FFFFFF" d="M-294.757,401.048c-0.296,0-0.548,0.109-0.762,0.32c-0.213,0.22-0.323,0.476-0.323,0.761v2.636
		c0,0.099,0.034,0.189,0.11,0.26c0.071,0.071,0.158,0.104,0.258,0.104c0.114,0,0.202-0.032,0.273-0.104
		c0.061-0.071,0.093-0.162,0.093-0.26v-2.357h0.191v6.526c0,0.125,0.055,0.241,0.159,0.331c0.098,0.099,0.213,0.14,0.344,0.14
		c0.143,0,0.258-0.042,0.351-0.14c0.099-0.09,0.143-0.206,0.143-0.331v-3.784h0.213v3.784c0,0.125,0.049,0.241,0.142,0.331
		c0.093,0.099,0.214,0.14,0.362,0.14c0.125,0,0.234-0.042,0.334-0.14c0.092-0.09,0.135-0.206,0.135-0.331v-6.526h0.198v2.357
		c0,0.099,0.032,0.189,0.098,0.26c0.078,0.071,0.169,0.104,0.268,0.104c0.115,0,0.203-0.032,0.269-0.104
		c0.06-0.071,0.098-0.162,0.098-0.26v-2.636c0-0.285-0.104-0.541-0.318-0.761c-0.209-0.211-0.46-0.32-0.766-0.32H-294.757
		L-294.757,401.048z"/>
	<path fill="#FFFFFF" d="M-293.815,400.831c0.23,0,0.432-0.075,0.596-0.234c0.163-0.162,0.246-0.362,0.246-0.605
		c0-0.231-0.083-0.428-0.246-0.592c-0.164-0.168-0.366-0.252-0.596-0.252c-0.241,0-0.444,0.084-0.598,0.252
		c-0.163,0.163-0.24,0.361-0.24,0.592c0,0.242,0.077,0.443,0.24,0.605C-294.259,400.756-294.056,400.831-293.815,400.831z"/>
	<rect x="-297.566" y="398.475" fill="#FFFFFF" width="0.832" height="12.05"/>
</g>
</svg>
