<?xml version="1.0" encoding="utf-8"?>
<!-- Generator: Adobe Illustrator 17.0.0, SVG Export Plug-In . SVG Version: 6.00 Build 0)  -->
<!DOCTYPE svg PUBLIC "-//W3C//DTD SVG 1.1//EN" "http://www.w3.org/Graphics/SVG/1.1/DTD/svg11.dtd">
<svg version="1.1" id="Layer_1" xmlns="http://www.w3.org/2000/svg" xmlns:xlink="http://www.w3.org/1999/xlink" x="0px" y="0px"
	 width="14px" height="14px" viewBox="-305.5 396.5 14 14" enable-background="new -305.5 396.5 14 14" xml:space="preserve">
<g>
	<path d="M-291.474,407.401c0,1.716-1.408,3.12-3.128,3.12h-7.797c-1.721,0-3.128-1.404-3.128-3.12v-7.801
		c0-1.716,1.408-3.12,3.128-3.12h7.797c1.721,0,3.128,1.404,3.128,3.12V407.401z"/>
</g>
<g>
	<path fill="#FFFFFF" stroke="#FFFFFF" stroke-width="0.5" stroke-miterlimit="10" d="M-298.702,399.994
		c0.444,0,0.803-0.361,0.803-0.805s-0.359-0.803-0.803-0.803s-0.805,0.359-0.805,0.803S-299.146,399.994-298.702,399.994z"/>
	<path fill="#FFFFFF" stroke="#FFFFFF" stroke-width="0.5" stroke-miterlimit="10" d="M-300.061,400.127
		c0.031-0.124-0.047-0.247-0.169-0.278l-0.67-0.161c-0.126-0.028-0.249,0.045-0.278,0.169l-0.563,2.33
		c-0.031,0.124,0.045,0.247,0.169,0.278l0.672,0.161c0.121,0.031,0.247-0.045,0.276-0.169L-300.061,400.127z"/>
	<path fill="#FFFFFF" stroke="#FFFFFF" stroke-width="0.5" stroke-miterlimit="10" d="M-296.968,408.414
		c0,0.005-0.002,0.01-0.002,0.012c0,0.102,0.083,0.185,0.185,0.185c0.093,0,0.171-0.071,0.183-0.161l1.349-7.318
		c0-0.005,0-0.01,0-0.014c0-0.1-0.081-0.183-0.183-0.183c-0.093,0-0.164,0.071-0.183,0.161L-296.968,408.414z"/>
	<path fill="#FFFFFF" stroke="#FFFFFF" stroke-width="0.5" stroke-miterlimit="10" d="M-301.457,407.934
		c-0.007,0.038-0.01,0.076-0.01,0.114c0,0.314,0.252,0.565,0.565,0.565c0.257,0,0.473-0.171,0.542-0.404l0.972-4.021l0.926,3.997
		c0.059,0.247,0.283,0.428,0.546,0.428c0.314,0,0.565-0.252,0.565-0.565c0-0.043-0.005-0.083-0.012-0.123l-1.271-5.311l0.107-0.468
		l0.083,0.368c0.076,0.24,0.295,0.264,0.295,0.264l1.309,0.332c0.026,0.005,0.052,0.007,0.078,0.007
		c0.214,0,0.387-0.171,0.387-0.385c0-0.183-0.126-0.337-0.297-0.378l-1.133-0.285l-0.311-1.264
		c-0.147-0.705-0.822-0.689-0.822-0.689c-0.656-0.017-0.819,0.672-0.819,0.672L-301.457,407.934z"/>
</g>
</svg>
