<?xml version="1.0" encoding="utf-8"?>
<!-- Generator: Adobe Illustrator 17.0.0, SVG Export Plug-In . SVG Version: 6.00 Build 0)  -->
<!DOCTYPE svg PUBLIC "-//W3C//DTD SVG 1.1//EN" "http://www.w3.org/Graphics/SVG/1.1/DTD/svg11.dtd">
<svg version="1.1" id="Layer_1" xmlns="http://www.w3.org/2000/svg" xmlns:xlink="http://www.w3.org/1999/xlink" x="0px" y="0px"
	 width="22px" height="22px" viewBox="-307.5 394.5 22 22" enable-background="new -307.5 394.5 22 22" xml:space="preserve">
<g>
	<path d="M-287.5,410.5c0,2.2-1.803,4-4.007,4h-9.986c-2.204,0-4.007-1.8-4.007-4v-10c0-2.2,1.803-4,4.007-4h9.986
		c2.204,0,4.007,1.8,4.007,4V410.5z"/>
</g>
<g>
	<path fill="#FFFFFF" stroke="#FFFFFF" stroke-width="0.5" stroke-miterlimit="10" d="M-296.806,400.634
		c0.604,0,1.091-0.491,1.091-1.094s-0.487-1.091-1.091-1.091s-1.094,0.487-1.094,1.091S-297.409,400.634-296.806,400.634z"/>
	<path fill="#FFFFFF" stroke="#FFFFFF" stroke-width="0.5" stroke-miterlimit="10" d="M-298.652,400.815
		c0.042-0.168-0.064-0.336-0.229-0.378l-0.91-0.219c-0.171-0.039-0.339,0.061-0.378,0.229l-0.765,3.166
		c-0.042,0.168,0.061,0.336,0.229,0.378l0.913,0.219c0.165,0.042,0.336-0.061,0.374-0.229L-298.652,400.815z"/>
	<path fill="#FFFFFF" stroke="#FFFFFF" stroke-width="0.5" stroke-miterlimit="10" d="M-294.449,412.077
		c0,0.007-0.003,0.013-0.003,0.016c0,0.139,0.113,0.252,0.252,0.252c0.126,0,0.232-0.097,0.249-0.219l1.833-9.945
		c0-0.006,0-0.013,0-0.019c0-0.135-0.11-0.249-0.249-0.249c-0.126,0-0.223,0.097-0.249,0.219L-294.449,412.077z"/>
	<path fill="#FFFFFF" stroke="#FFFFFF" stroke-width="0.5" stroke-miterlimit="10" d="M-300.55,411.425
		c-0.01,0.052-0.013,0.103-0.013,0.155c0,0.426,0.342,0.768,0.768,0.768c0.349,0,0.642-0.232,0.736-0.549l1.32-5.465l1.259,5.432
		c0.081,0.336,0.384,0.581,0.742,0.581c0.426,0,0.768-0.342,0.768-0.768c0-0.058-0.006-0.113-0.016-0.168l-1.727-7.218l0.145-0.636
		l0.113,0.5c0.103,0.326,0.4,0.358,0.4,0.358l1.779,0.452c0.036,0.007,0.071,0.01,0.107,0.01c0.29,0,0.526-0.232,0.526-0.523
		c0-0.249-0.171-0.458-0.403-0.513l-1.54-0.387l-0.423-1.717c-0.2-0.959-1.117-0.936-1.117-0.936
		c-0.891-0.023-1.114,0.913-1.114,0.913L-300.55,411.425z"/>
</g>
<rect x="-307.5" y="394.5" fill="none" width="22" height="22"/>
</svg>
