<?xml version="1.0" encoding="utf-8"?>
<!-- Generator: Adobe Illustrator 17.0.0, SVG Export Plug-In . SVG Version: 6.00 Build 0)  -->
<!DOCTYPE svg PUBLIC "-//W3C//DTD SVG 1.1//EN" "http://www.w3.org/Graphics/SVG/1.1/DTD/svg11.dtd">
<svg version="1.1" id="Layer_1" xmlns="http://www.w3.org/2000/svg" xmlns:xlink="http://www.w3.org/1999/xlink" x="0px" y="0px"
	 width="16px" height="16px" viewBox="-305.5 396.5 16 16" enable-background="new -305.5 396.5 16 16" xml:space="preserve">
<g>
	<path d="M-289.499,408.945c0,1.956-1.603,3.556-3.562,3.556h-8.877c-1.959,0-3.562-1.6-3.562-3.556v-8.889
		c0-1.956,1.603-3.556,3.562-3.556h8.877c1.959,0,3.562,1.6,3.562,3.556V408.945z"/>
</g>
<g>
	<path fill="#FFFFFF" stroke="#FFFFFF" stroke-width="0.5" stroke-miterlimit="10" d="M-297.734,400.444
		c0.514,0,0.929-0.418,0.929-0.932s-0.415-0.929-0.929-0.929s-0.932,0.415-0.932,0.929S-298.248,400.444-297.734,400.444z"/>
	<path fill="#FFFFFF" stroke="#FFFFFF" stroke-width="0.5" stroke-miterlimit="10" d="M-299.305,400.598
		c0.036-0.143-0.055-0.286-0.195-0.321l-0.775-0.187c-0.146-0.033-0.288,0.052-0.321,0.195l-0.651,2.695
		c-0.036,0.143,0.052,0.286,0.195,0.321l0.778,0.187c0.14,0.036,0.286-0.052,0.319-0.195L-299.305,400.598z"/>
	<path fill="#FFFFFF" stroke="#FFFFFF" stroke-width="0.5" stroke-miterlimit="10" d="M-295.728,410.185
		c0,0.006-0.003,0.011-0.003,0.014c0,0.118,0.096,0.214,0.214,0.214c0.107,0,0.198-0.082,0.212-0.187l1.561-8.466
		c0-0.005,0-0.011,0-0.017c0-0.115-0.093-0.212-0.212-0.212c-0.107,0-0.19,0.082-0.212,0.187L-295.728,410.185z"/>
	<path fill="#FFFFFF" stroke="#FFFFFF" stroke-width="0.5" stroke-miterlimit="10" d="M-300.921,409.63
		c-0.008,0.044-0.011,0.088-0.011,0.132c0,0.363,0.291,0.654,0.654,0.654c0.297,0,0.547-0.198,0.626-0.467l1.124-4.652l1.072,4.624
		c0.069,0.286,0.327,0.495,0.632,0.495c0.363,0,0.654-0.291,0.654-0.654c0-0.049-0.005-0.096-0.014-0.143l-1.47-6.144l0.124-0.541
		l0.096,0.426c0.088,0.277,0.341,0.305,0.341,0.305l1.514,0.385c0.03,0.006,0.06,0.008,0.091,0.008c0.247,0,0.448-0.198,0.448-0.445
		c0-0.212-0.146-0.39-0.343-0.437l-1.311-0.33l-0.36-1.462c-0.17-0.816-0.951-0.797-0.951-0.797
		c-0.758-0.019-0.948,0.778-0.948,0.778L-300.921,409.63z"/>
</g>
</svg>
