<?xml version="1.0" encoding="utf-8"?>
<!-- Generator: Adobe Illustrator 17.0.0, SVG Export Plug-In . SVG Version: 6.00 Build 0)  -->
<!DOCTYPE svg PUBLIC "-//W3C//DTD SVG 1.1//EN" "http://www.w3.org/Graphics/SVG/1.1/DTD/svg11.dtd">
<svg version="1.1" id="Layer_1" xmlns="http://www.w3.org/2000/svg" xmlns:xlink="http://www.w3.org/1999/xlink" x="0px" y="0px"
	 width="36px" height="20px" viewBox="0 0 36 20" enable-background="new 0 0 36 20" xml:space="preserve">
<rect fill="none" width="36" height="20"/>
<path d="M31.023,12.97"/>
<path d="M22.031,12.97"/>
<g>
	<path d="M31.875,4.369c-0.176-0.885-0.74-1.238-1.59-1.59c-0.831-0.349-2.829-0.763-4.306-0.776
		c-1.48,0.013-3.478,0.427-4.314,0.776c-0.844,0.352-1.408,0.705-1.581,1.59l-0.636,4.884v6.739h1.095v1.051
		c-0.004,1.292,1.88,1.292,1.881,0v-1.051h3.48h0.009h3.621v1.051c-0.002,1.292,1.883,1.292,1.881,0v-1.051h1.095V9.254
		L31.875,4.369z M23.29,3.239h2.623h2.756c0.526-0.001,0.526,0.792,0,0.795h-2.764H23.29C22.761,4.031,22.761,3.237,23.29,3.239z
		 M21.479,13.882c-0.496-0.002-0.902-0.407-0.901-0.91c-0.001-0.496,0.404-0.901,0.901-0.901c0.502,0,0.907,0.405,0.91,0.901
		C22.386,13.475,21.981,13.879,21.479,13.882z M25.913,9.766h-4.796c-0.468,0.004-0.567-0.333-0.521-0.671l0.494-3.551
		c0.068-0.427,0.214-0.711,0.777-0.715h4.037h4.186c0.56,0.004,0.706,0.288,0.777,0.715l0.495,3.551
		c0.043,0.338-0.056,0.676-0.521,0.671H25.913z M30.47,13.882c-0.496-0.002-0.901-0.407-0.901-0.91c0-0.496,0.405-0.901,0.901-0.901
		c0.502,0,0.907,0.405,0.91,0.901C31.378,13.475,30.973,13.879,30.47,13.882z"/>
	<path d="M25.913,2.002c0.022,0,0.044,0.001,0.066,0.001c0.022,0,0.045-0.001,0.066-0.001H25.913z"/>
</g>
</svg>
