<?xml version="1.0" encoding="utf-8"?>
<!-- Generator: Adobe Illustrator 17.0.0, SVG Export Plug-In . SVG Version: 6.00 Build 0)  -->
<!DOCTYPE svg PUBLIC "-//W3C//DTD SVG 1.1//EN" "http://www.w3.org/Graphics/SVG/1.1/DTD/svg11.dtd">
<svg version="1.1" id="Layer_1" xmlns="http://www.w3.org/2000/svg" xmlns:xlink="http://www.w3.org/1999/xlink" x="0px" y="0px"
	 width="36px" height="20px" viewBox="-481.5 278.5 36 20" enable-background="new -481.5 278.5 36 20" xml:space="preserve">
<g>
	<path d="M-455.5,280.5c-4.375-0.003-7.922,3.581-7.927,7.995c0.003,4.423,3.552,8.006,7.927,8.005
		c4.377,0.001,7.923-3.581,7.927-8.005C-447.576,284.081-451.124,280.497-455.5,280.5z M-455.5,294.657
		c-3.367,0-6.096-2.757-6.091-6.161c-0.003-3.397,2.726-6.154,6.091-6.152c3.368-0.001,6.097,2.755,6.101,6.153
		C-449.403,291.9-452.133,294.657-455.5,294.657z"/>
	<path d="M-456.323,291.326l1.792-0.008v-1.385c-0.005-0.376,0.171-0.731,0.64-1.038c0.47-0.309,1.781-0.934,1.783-2.579
		c-0.002-1.639-1.378-2.768-2.536-3.011c-1.155-0.235-2.409-0.078-3.297,0.901c-0.798,0.869-0.966,1.559-0.969,3.081h1.791v-0.354
		c-0.003-0.81,0.09-1.666,1.246-1.904c0.635-0.125,1.229,0.074,1.584,0.416c0.4,0.395,0.402,1.282-0.242,1.722l-1.005,0.683
		c-0.585,0.379-0.786,0.798-0.787,1.41V291.326L-456.323,291.326z"/>
	<polygon points="-456.331,293.862 -456.331,292.027 -454.523,292.027 -454.523,293.862 	"/>
</g>
<line fill="none" x1="-455.5" y1="280.5" x2="-455.5" y2="296.5"/>
<rect x="-481.5" y="278.5" fill="none" width="36" height="20"/>
</svg>
