<?xml version="1.0" encoding="utf-8"?>
<!-- Generator: Adobe Illustrator 17.0.0, SVG Export Plug-In . SVG Version: 6.00 Build 0)  -->
<!DOCTYPE svg PUBLIC "-//W3C//DTD SVG 1.1//EN" "http://www.w3.org/Graphics/SVG/1.1/DTD/svg11.dtd">
<svg version="1.1" id="Layer_1" xmlns="http://www.w3.org/2000/svg" xmlns:xlink="http://www.w3.org/1999/xlink" x="0px" y="0px"
	 width="18px" height="18px" viewBox="-481.5 278.5 18 18" enable-background="new -481.5 278.5 18 18" xml:space="preserve">
<g>
	<path d="M-472.5,280.5c-3.828-0.003-6.932,3.133-6.936,6.996c0.004,3.87,3.108,7.005,6.936,7.004
		c3.83,0.001,6.933-3.133,6.936-7.004C-465.566,283.633-468.67,280.497-472.5,280.5z M-472.5,292.887
		c-2.946,0-5.334-2.412-5.33-5.391c-0.003-2.972,2.385-5.385,5.33-5.383c2.947-0.001,5.335,2.411,5.338,5.384
		C-467.164,290.475-469.553,292.887-472.5,292.887z"/>
	<path d="M-473.219,289.972l1.568-0.007v-1.212c-0.004-0.329,0.15-0.64,0.56-0.908c0.411-0.27,1.558-0.817,1.56-2.257
		c-0.002-1.434-1.206-2.422-2.219-2.635c-1.011-0.206-2.108-0.068-2.885,0.788c-0.698,0.76-0.845,1.364-0.848,2.696h1.567v-0.31
		c-0.003-0.709,0.079-1.458,1.09-1.666c0.556-0.109,1.075,0.065,1.386,0.364c0.35,0.346,0.352,1.122-0.212,1.507l-0.878,0.598
		c-0.512,0.332-0.688,0.698-0.689,1.234L-473.219,289.972L-473.219,289.972z"/>
	<polygon points="-473.226,292.191 -473.226,290.586 -471.644,290.586 -471.644,292.191 	"/>
</g>
<rect x="-481.5" y="278.5" fill="none" width="18" height="18"/>
</svg>
