<?xml version="1.0" encoding="utf-8"?>
<!-- Generator: Adobe Illustrator 17.0.0, SVG Export Plug-In . SVG Version: 6.00 Build 0)  -->
<!DOCTYPE svg PUBLIC "-//W3C//DTD SVG 1.1//EN" "http://www.w3.org/Graphics/SVG/1.1/DTD/svg11.dtd">
<svg version="1.1" id="Layer_1" xmlns="http://www.w3.org/2000/svg" xmlns:xlink="http://www.w3.org/1999/xlink" x="0px" y="0px"
	 width="28px" height="14px" viewBox="0 0 28 14" enable-background="new 0 0 28 14" xml:space="preserve">
<g>
	<path d="M21.064,0c-3.828-0.003-6.932,3.133-6.936,6.996c0.003,3.87,3.108,7.005,6.936,7.004c3.83,0.001,6.933-3.133,6.936-7.004
		C27.997,3.133,24.893-0.003,21.064,0z M21.064,12.387c-2.946,0-5.334-2.412-5.33-5.391c-0.003-2.972,2.385-5.385,5.33-5.383
		c2.947-0.001,5.335,2.411,5.338,5.384C26.399,9.975,24.01,12.387,21.064,12.387z"/>
	<path d="M20.344,9.472l1.568-0.007V8.253c-0.004-0.329,0.15-0.64,0.56-0.908c0.411-0.27,1.558-0.817,1.56-2.257
		c-0.002-1.434-1.206-2.422-2.219-2.635c-1.011-0.206-2.108-0.068-2.885,0.788c-0.698,0.76-0.845,1.364-0.848,2.696h1.567v-0.31
		c-0.003-0.709,0.079-1.458,1.09-1.666c0.556-0.109,1.075,0.065,1.386,0.364c0.35,0.346,0.352,1.122-0.212,1.507L21.032,6.43
		c-0.512,0.332-0.688,0.698-0.689,1.234L20.344,9.472L20.344,9.472z"/>
	<polygon points="20.337,11.691 20.337,10.086 21.919,10.086 21.919,11.691 	"/>
</g>
<line fill="none" x1="0" y1="0" x2="0" y2="14"/>
</svg>
