<?xml version="1.0" encoding="utf-8"?>
<!-- Generator: Adobe Illustrator 17.0.0, SVG Export Plug-In . SVG Version: 6.00 Build 0)  -->
<!DOCTYPE svg PUBLIC "-//W3C//DTD SVG 1.1//EN" "http://www.w3.org/Graphics/SVG/1.1/DTD/svg11.dtd">
<svg version="1.1" id="Layer_1" xmlns="http://www.w3.org/2000/svg" xmlns:xlink="http://www.w3.org/1999/xlink" x="0px" y="0px"
	 width="18px" height="18px" viewBox="-300.5 394.5 18 18" enable-background="new -300.5 394.5 18 18" xml:space="preserve">
<g>
	<path d="M-282.531,408.5c0,2.2-1.8,4-4,4h-9.969c-2.2,0-4-1.8-4-4v-10c0-2.2,1.8-4,4-4h9.969c2.2,0,4,1.8,4,4V408.5z"/>
</g>
<g>
	<path fill="#FFFFFF" d="M-290.199,399.928c0.668,0,1.211-0.543,1.214-1.214c-0.003-0.669-0.546-1.212-1.214-1.214
		c-0.671,0.003-1.214,0.545-1.214,1.214C-291.413,399.385-290.87,399.928-290.199,399.928L-290.199,399.928z"/>
	<path fill="#FFFFFF" d="M-292.983,398.954c0.687-0.354,1.647,0.295,1.655,1.006v2.311l1.097,1.214
		c0.504,0.565-0.294,1.343-0.851,0.779l-1.24-1.37c-0.08-0.076-0.138-0.167-0.136-0.376v-1.104l-2.168,1.168v5.875
		c0.001,1.327-1.797,1.327-1.798,0.013v-6.965c0.001-0.388,0.155-0.766,0.539-0.987L-292.983,398.954L-292.983,398.954z"/>
	<path fill="#FFFFFF" d="M-288.485,404.913h1.909v-3.473l-3.843-0.007c-0.491,0-0.676,0.557-0.37,0.909L-288.485,404.913
		L-288.485,404.913z"/>
	<path fill="#FFFFFF" d="M-289.589,401.278c0.081-0.001,0.147-0.067,0.149-0.149c-0.002-0.082-0.069-0.148-0.149-0.149
		c-0.083,0.001-0.149,0.067-0.149,0.149S-289.672,401.277-289.589,401.278L-289.589,401.278z"/>
	<path fill="#FFFFFF" d="M-289.589,401.129"/>
	<path fill="#FFFFFF" d="M-289.193,401.304c0.082-0.001,0.148-0.067,0.149-0.149c-0.001-0.082-0.068-0.148-0.149-0.149
		c-0.082,0.001-0.148,0.068-0.149,0.149C-289.341,401.236-289.275,401.303-289.193,401.304L-289.193,401.304z"/>
	<path fill="#FFFFFF" d="M-289.193,401.155"/>
	<path fill="#FFFFFF" d="M-289.167,400.863c0.081,0.002,0.148-0.065,0.149-0.143c-0.002-0.085-0.068-0.151-0.149-0.149
		c-0.082-0.002-0.149,0.064-0.149,0.149C-289.315,400.798-289.249,400.865-289.167,400.863L-289.167,400.863z"/>
	<path fill="#FFFFFF" d="M-289.167,400.72"/>
	<path fill="#FFFFFF" d="M-289.562,400.836c0.082,0.001,0.148-0.066,0.149-0.149c-0.001-0.08-0.068-0.146-0.149-0.149
		c-0.082,0.003-0.148,0.069-0.149,0.149C-289.711,400.771-289.644,400.837-289.562,400.836L-289.562,400.836z"/>
	<path fill="#FFFFFF" d="M-289.562,400.687"/>
	<path fill="#FFFFFF" d="M-289.433,400.434c0.084-0.003,0.154-0.073,0.156-0.156c-0.002-0.089-0.072-0.159-0.156-0.156
		c-0.088-0.003-0.157,0.067-0.156,0.156C-289.59,400.361-289.52,400.431-289.433,400.434L-289.433,400.434z"/>
	<path fill="#FFFFFF" d="M-289.433,400.278"/>
	<path fill="#FFFFFF" d="M-288.952,400.512c0.086-0.003,0.156-0.073,0.156-0.156c0-0.089-0.069-0.159-0.156-0.155
		c-0.085-0.003-0.155,0.067-0.156,0.155C-289.107,400.439-289.038,400.509-288.952,400.512L-288.952,400.512z"/>
	<path fill="#FFFFFF" d="M-288.952,400.356"/>
	<path fill="#FFFFFF" d="M-289.121,400.109c0.088-0.002,0.161-0.075,0.162-0.162c-0.001-0.093-0.074-0.167-0.162-0.169
		c-0.093,0.002-0.166,0.076-0.162,0.169C-289.286,400.035-289.214,400.108-289.121,400.109L-289.121,400.109z"/>
	<path fill="#FFFFFF" d="M-289.121,399.947"/>
	<path fill="#FFFFFF" d="M-288.563,400.369c0.089-0.002,0.162-0.075,0.162-0.162c0-0.093-0.073-0.166-0.162-0.169
		c-0.092,0.002-0.165,0.075-0.162,0.169C-288.728,400.294-288.655,400.367-288.563,400.369L-288.563,400.369z"/>
	<path fill="#FFFFFF" d="M-288.563,400.207"/>
	<path fill="#FFFFFF" d="M-288.745,399.967c0.093-0.002,0.166-0.075,0.169-0.162c-0.003-0.093-0.077-0.166-0.169-0.169
		c-0.088,0.002-0.161,0.076-0.162,0.169C-288.906,399.892-288.832,399.965-288.745,399.967L-288.745,399.967z"/>
	<path fill="#FFFFFF" d="M-288.745,399.804"/>
	<path fill="#FFFFFF" d="M-288.303,399.967c0.101-0.001,0.182-0.082,0.182-0.182c0-0.099-0.081-0.18-0.182-0.182
		c-0.098,0.002-0.179,0.083-0.182,0.182C-288.482,399.885-288.401,399.966-288.303,399.967L-288.303,399.967z"/>
	<path fill="#FFFFFF" d="M-288.303,399.785"/>
	<path fill="#FFFFFF" d="M-288.16,400.525c0.098-0.001,0.179-0.082,0.182-0.182c-0.003-0.099-0.084-0.18-0.182-0.182
		c-0.101,0.002-0.182,0.082-0.182,0.182C-288.342,400.443-288.262,400.524-288.16,400.525L-288.16,400.525z"/>
	<path fill="#FFFFFF" d="M-288.16,400.343"/>
	<path fill="#FFFFFF" d="M-287.888,400.181c0.106-0.002,0.191-0.087,0.189-0.189c0.002-0.107-0.082-0.192-0.189-0.194
		c-0.103,0.003-0.187,0.087-0.188,0.194C-288.075,400.094-287.991,400.179-287.888,400.181L-287.888,400.181z"/>
	<path fill="#FFFFFF" d="M-287.888,399.993"/>
	<path fill="#FFFFFF" d="M-287.524,400.544c0.109,0.001,0.198-0.088,0.201-0.195c-0.003-0.113-0.092-0.201-0.201-0.201
		c-0.11,0-0.199,0.088-0.201,0.201C-287.723,400.456-287.634,400.545-287.524,400.544L-287.524,400.544z"/>
	<path fill="#FFFFFF" d="M-287.524,400.35"/>
	<path fill="#FFFFFF" d="M-287.868,400.895c0.111,0.001,0.199-0.088,0.202-0.195c-0.002-0.113-0.091-0.202-0.202-0.201
		c-0.109-0.001-0.198,0.089-0.194,0.201C-288.066,400.807-287.977,400.896-287.868,400.895L-287.868,400.895z"/>
	<path fill="#FFFFFF" d="M-287.868,400.7"/>
</g>
</svg>
