<?xml version="1.0" encoding="utf-8"?>
<!-- Generator: Adobe Illustrator 17.0.0, SVG Export Plug-In . SVG Version: 6.00 Build 0)  -->
<!DOCTYPE svg PUBLIC "-//W3C//DTD SVG 1.1//EN" "http://www.w3.org/Graphics/SVG/1.1/DTD/svg11.dtd">
<svg version="1.1" id="Layer_1" xmlns="http://www.w3.org/2000/svg" xmlns:xlink="http://www.w3.org/1999/xlink" x="0px" y="0px"
	 width="16px" height="16px" viewBox="-299.5 395.5 16 16" enable-background="new -299.5 395.5 16 16" xml:space="preserve">
<g>
	<path d="M-283.5,407.5c0,2.2-1.8,4-4,4h-8c-2.2,0-4-1.8-4-4v-8c0-2.2,1.8-4,4-4h8c2.2,0,4,1.8,4,4V407.5z"/>
</g>
<path fill="#FFFFFF" d="M-290.205,400.565c0.568,0,1.03-0.462,1.033-1.032c-0.002-0.569-0.464-1.031-1.033-1.033
	c-0.571,0.002-1.033,0.464-1.032,1.033C-291.238,400.103-290.776,400.565-290.205,400.565L-290.205,400.565z"/>
<path fill="#FFFFFF" d="M-292.574,399.737c0.584-0.301,1.401,0.251,1.408,0.856v1.966l0.933,1.032
	c0.429,0.481-0.25,1.142-0.723,0.662l-1.054-1.165c-0.068-0.065-0.117-0.142-0.116-0.32v-0.939l-1.844,0.994v4.997
	c0.001,1.129-1.528,1.128-1.529,0.011v-5.924c0.001-0.33,0.132-0.651,0.458-0.839L-292.574,399.737L-292.574,399.737z"/>
<path fill="#FFFFFF" d="M-288.747,404.805h1.623v-2.954l-3.269-0.006c-0.418,0-0.575,0.474-0.315,0.773L-288.747,404.805
	L-288.747,404.805z"/>
<path fill="#FFFFFF" d="M-289.686,401.714c0.069-0.001,0.125-0.057,0.127-0.127c-0.002-0.07-0.058-0.126-0.127-0.127
	c-0.071,0.001-0.127,0.057-0.127,0.127C-289.813,401.656-289.757,401.713-289.686,401.714L-289.686,401.714z"/>
<path fill="#FFFFFF" d="M-289.686,401.586"/>
<path fill="#FFFFFF" d="M-289.349,401.735c0.07-0.001,0.126-0.057,0.127-0.127c-0.001-0.07-0.057-0.126-0.127-0.127
	c-0.07,0.001-0.126,0.058-0.127,0.127C-289.476,401.678-289.419,401.735-289.349,401.735L-289.349,401.735z"/>
<path fill="#FFFFFF" d="M-289.349,401.609"/>
<path fill="#FFFFFF" d="M-289.327,401.36c0.069,0.002,0.125-0.055,0.127-0.122c-0.002-0.072-0.058-0.129-0.127-0.127
	c-0.07-0.002-0.126,0.055-0.127,0.127C-289.454,401.305-289.397,401.362-289.327,401.36L-289.327,401.36z"/>
<path fill="#FFFFFF" d="M-289.327,401.239"/>
<path fill="#FFFFFF" d="M-289.664,401.338c0.07,0.001,0.126-0.056,0.127-0.127c-0.001-0.068-0.058-0.125-0.127-0.127
	c-0.07,0.003-0.126,0.059-0.127,0.127C-289.79,401.282-289.734,401.339-289.664,401.338L-289.664,401.338z"/>
<path fill="#FFFFFF" d="M-289.664,401.211"/>
<path fill="#FFFFFF" d="M-289.554,400.996c0.072-0.003,0.131-0.062,0.133-0.133c-0.002-0.076-0.061-0.135-0.133-0.133
	c-0.074-0.002-0.134,0.057-0.133,0.133C-289.687,400.934-289.628,400.993-289.554,400.996L-289.554,400.996z"/>
<path fill="#FFFFFF" d="M-289.554,400.863"/>
<path fill="#FFFFFF" d="M-289.145,401.062c0.074-0.003,0.133-0.062,0.133-0.133c0-0.076-0.059-0.135-0.133-0.132
	c-0.073-0.003-0.132,0.057-0.132,0.132C-289.277,401-289.218,401.059-289.145,401.062L-289.145,401.062z"/>
<path fill="#FFFFFF" d="M-289.145,400.929"/>
<path fill="#FFFFFF" d="M-289.288,400.719c0.075-0.002,0.137-0.064,0.138-0.138c-0.001-0.079-0.063-0.142-0.138-0.144
	c-0.079,0.002-0.141,0.064-0.138,0.144C-289.429,400.656-289.367,400.718-289.288,400.719L-289.288,400.719z"/>
<path fill="#FFFFFF" d="M-289.288,400.582"/>
<path fill="#FFFFFF" d="M-288.814,400.94c0.076-0.002,0.138-0.064,0.138-0.138c0-0.079-0.062-0.142-0.138-0.143
	c-0.078,0.002-0.14,0.064-0.138,0.143C-288.954,400.877-288.892,400.939-288.814,400.94L-288.814,400.94z"/>
<path fill="#FFFFFF" d="M-288.814,400.802"/>
<path fill="#FFFFFF" d="M-288.968,400.598c0.079-0.002,0.141-0.064,0.144-0.138c-0.003-0.079-0.065-0.142-0.144-0.143
	c-0.075,0.002-0.137,0.064-0.138,0.143C-289.105,400.534-289.043,400.597-288.968,400.598L-288.968,400.598z"/>
<path fill="#FFFFFF" d="M-288.968,400.46"/>
<path fill="#FFFFFF" d="M-288.593,400.598c0.086-0.001,0.155-0.07,0.155-0.155c0-0.084-0.069-0.153-0.155-0.155
	c-0.083,0.002-0.152,0.07-0.155,0.155C-288.745,400.528-288.676,400.597-288.593,400.598L-288.593,400.598z"/>
<path fill="#FFFFFF" d="M-288.593,400.444"/>
<path fill="#FFFFFF" d="M-288.471,401.073c0.083-0.001,0.152-0.07,0.154-0.155c-0.002-0.085-0.071-0.153-0.154-0.155
	c-0.086,0.002-0.154,0.07-0.154,0.155C-288.626,401.003-288.557,401.072-288.471,401.073L-288.471,401.073z"/>
<path fill="#FFFFFF" d="M-288.471,400.919"/>
<path fill="#FFFFFF" d="M-288.24,400.78c0.09-0.002,0.162-0.074,0.16-0.16c0.002-0.091-0.07-0.163-0.16-0.165
	c-0.087,0.002-0.159,0.074-0.16,0.165C-288.399,400.707-288.327,400.778-288.24,400.78L-288.24,400.78z"/>
<path fill="#FFFFFF" d="M-288.24,400.62"/>
<path fill="#FFFFFF" d="M-287.93,401.09c0.093,0.001,0.169-0.075,0.171-0.166c-0.003-0.096-0.078-0.171-0.171-0.171
	c-0.094,0-0.169,0.075-0.171,0.171C-288.1,401.015-288.024,401.09-287.93,401.09L-287.93,401.09z"/>
<path fill="#FFFFFF" d="M-287.93,400.924"/>
<path fill="#FFFFFF" d="M-288.223,401.388c0.094,0.001,0.169-0.075,0.171-0.166c-0.002-0.096-0.077-0.172-0.171-0.171
	c-0.093-0.001-0.168,0.075-0.165,0.171C-288.391,401.313-288.316,401.388-288.223,401.388L-288.223,401.388z"/>
<path fill="#FFFFFF" d="M-288.223,401.222"/>
</svg>
