<?xml version="1.0" encoding="utf-8"?>
<!-- Generator: Adobe Illustrator 17.0.0, SVG Export Plug-In . SVG Version: 6.00 Build 0)  -->
<!DOCTYPE svg PUBLIC "-//W3C//DTD SVG 1.1//EN" "http://www.w3.org/Graphics/SVG/1.1/DTD/svg11.dtd">
<svg version="1.1" id="Layer_1" xmlns="http://www.w3.org/2000/svg" xmlns:xlink="http://www.w3.org/1999/xlink" x="0px" y="0px"
	 width="22px" height="22px" viewBox="-481.5 278.5 22 22" enable-background="new -481.5 278.5 22 22" xml:space="preserve">
<g>
	<path d="M-461.516,294.5c0,2.2-1.8,4-4,4h-9.969c-2.2,0-4-1.8-4-4v-10c0-2.2,1.8-4,4-4h9.969c2.2,0,4,1.8,4,4V294.5z"/>
</g>
<path fill="#FFFFFF" d="M-467.158,290.713c-0.062-0.204-0.141-0.406-0.241-0.611c-1.307-2.662-1.723-3.447-3.1-6.387
	c-1.263,2.829-1.794,3.727-3.1,6.389c-0.099,0.201-0.278,0.805-0.34,1.005c-0.427,2.212,1.275,4.176,3.44,4.176
	c2.161,0,3.861-1.958,3.442-4.165"/>
<path fill="#FFFFFF" d="M-470.408,290.636c0.005,0.002,0.009,0.005,0.014,0.007c0.006,0.003,0.011,0.006,0.017,0.009
	c0.001,0.001,0.002,0.001,0.003,0.002c0.004,0.002,0.006,0.006,0.01,0.008c0.005,0.004,0.009,0.007,0.014,0.012
	c0.005,0.005,0.009,0.01,0.013,0.015"/>
<path fill="#FFFFFF" d="M-470.455,290.625c0.005,0,0.01,0,0.015,0.001"/>
<path fill="#FFFFFF" d="M-470.507,290.626c0.006-0.001,0.011-0.001,0.017-0.002"/>
</svg>
